<?xml version="1.0" encoding="UTF-8" standalone="no"?>
<!-- Created with Inkscape (http://www.inkscape.org/) -->

<svg
   version="1.1"
   id="svg1"
   width="725.77087"
   height="745.62909"
   viewBox="0 0 725.77087 745.62909"
   sodipodi:docname="DomHSswoosh.svg"
   inkscape:version="1.3 (0e150ed6c4, 2023-07-21)"
   xmlns:inkscape="http://www.inkscape.org/namespaces/inkscape"
   xmlns:sodipodi="http://sodipodi.sourceforge.net/DTD/sodipodi-0.dtd"
   xmlns="http://www.w3.org/2000/svg"
   xmlns:svg="http://www.w3.org/2000/svg">
  <defs
     id="defs1" />
  <sodipodi:namedview
     id="namedview1"
     pagecolor="#ffffff"
     bordercolor="#000000"
     borderopacity="0.25"
     inkscape:showpageshadow="2"
     inkscape:pageopacity="0.0"
     inkscape:pagecheckerboard="0"
     inkscape:deskcolor="#d1d1d1"
     inkscape:zoom="0.70572917"
     inkscape:cx="687.23247"
     inkscape:cy="206.16974"
     inkscape:window-width="1920"
     inkscape:window-height="1009"
     inkscape:window-x="1912"
     inkscape:window-y="-8"
     inkscape:window-maximized="1"
     inkscape:current-layer="g1" />
  <g
     inkscape:groupmode="layer"
     inkscape:label="Image"
     id="g1"
     transform="translate(-112.65687,-133.90191)">
    <g
       id="g43">
      <path
         style="fill:#fdedd2"
         d="m 455.08302,878.76332 c -48.87832,-3.4503 -98.41758,-17.1419 -139.06935,-38.43582 -19.08858,-9.99884 -21.60586,-11.48037 -37.71156,-22.19484 -17.56023,-11.68212 -22.12888,-15.1981 -38.58009,-29.69077 -13.00766,-11.45907 -37.36077,-37.06147 -42.09343,-44.25276 -1.75738,-2.67035 -2.22743,-3.73018 -1.04456,-2.35518 1.18287,1.375 5.30892,6.19928 9.169,10.72062 9.17868,10.75103 35.19543,36.03012 45.89323,44.59201 45.89719,36.73337 99.2276,62.2614 152.85167,73.16653 29.40317,5.97951 57.79828,8.59066 86.58509,7.96218 10.18473,-0.22236 10.94109,-0.14307 5,0.52412 -8.80843,0.98921 -26.69834,0.97346 -41,-0.0361 z m 48.5,-0.95779 c 0,-0.37767 2.66004,-0.9647 5.91121,-1.30451 16.57245,-1.73216 53.61499,-17.62183 80.90964,-34.70679 34.17941,-21.39443 64.2492,-48.45973 93.83614,-84.46028 7.16232,-8.71491 23.36858,-33.59671 28.98061,-44.49452 2.9755,-5.77801 5.11482,-9.38048 4.75406,-8.00548 -2.30588,8.78861 -26.37161,46.99529 -36.62265,58.14201 -2.34796,2.5531 -8.7129,9.8748 -14.14431,16.27043 -5.43142,6.39563 -10.44383,11.95673 -11.1387,12.35799 -0.69487,0.40126 -7.27598,6.20286 -14.6247,12.89243 -14.98084,13.63713 -37.72666,30.97633 -50.13484,38.21792 -4.52455,2.64059 -11.37646,6.75086 -15.22646,9.13391 -3.85,2.38306 -10.825,6.00213 -15.5,8.04237 -4.675,2.04025 -11.425,5.05421 -15,6.69769 -13.54077,6.2249 -42,13.82543 -42,11.21683 z m 74,-10.88686 c 82.63208,-23.08912 152.862,-72.57457 199.43091,-140.52312 19.68823,-28.72703 32.83929,-55.39822 43.91458,-89.0616 17.7689,-54.00858 21.45567,-126.44479 9.54316,-187.5 -4.7316,-24.25089 -11.52902,-46.93161 -20.95731,-69.92753 -6.638,-16.19032 -9.4562,-21.48416 -10.94674,-20.56295 -0.54153,0.33468 -0.9846,0.13196 -0.9846,-0.4505 0,-3.17521 4.99904,1.94809 7.74839,7.94098 13.39938,29.20731 22.4454,58.74781 27.81419,90.8295 1.31891,7.88122 2.66436,17.33122 2.9899,21 0.32554,3.66877 0.8193,8.0205 1.09724,9.6705 0.27795,1.65 0.75173,13.45669 1.05284,26.2371 1.0452,44.36278 -3.64256,81.77202 -15.07019,120.2629 -5.60082,18.86484 -18.58061,48.90646 -28.90621,66.90316 -6.47553,11.28635 -24.11145,37.65194 -28.15853,42.09684 -1.75272,1.925 -5.85995,6.86742 -9.12719,10.98315 -6.7965,8.56154 -27.81839,29.91641 -37.44044,38.0335 -3.575,3.01584 -6.725,5.74794 -7,6.07133 -2.75283,3.23723 -30.66003,22.49349 -46.5,32.08549 -25.495,15.43867 -76.55452,36.13345 -94.5,38.30151 -2.64129,0.3191 -0.16302,-0.66818 6,-2.39026 z m -9.49255,-0.0968 c 0.97349,-1.57514 8.45686,-6.39855 16.954,-10.9277 4.3788,-2.334 9.7788,-5.55762 12,-7.1636 2.2212,-1.60599 7.86355,-5.47174 12.53855,-8.59056 20.65975,-13.78267 62.39615,-52.09282 74.27726,-68.17963 2.28551,-3.09455 6.89863,-9.00145 10.25139,-13.12645 8.49229,-10.44835 27.59991,-41.29457 32.83072,-53 5.20026,-11.63705 13.64063,-32.06125 13.64063,-33.00789 0,-1.74256 -1.0598,-1.10839 -7.34632,4.39592 -6.46772,5.66298 -25.2866,17.14911 -39.65368,24.20268 -8.94882,4.39346 -33.30325,13.24836 -43.54738,15.83318 -3.32606,0.83923 -9.40106,1.99868 -13.5,2.57655 -12.11568,1.70808 -44.59117,8.9641 -55.93295,12.49715 -18.59415,5.7922 -37.2979,14.53657 -47.01824,21.98194 -3.02579,2.31763 -6.40143,4.69431 -7.50143,5.28152 -1.1,0.58721 -4.25,3.41107 -7,6.27523 -2.75,2.86417 -7.03936,7.29022 -9.53192,9.83566 -2.49256,2.54544 -6.24726,6.65308 -8.34378,9.12808 -5.11129,6.034 -3.47084,3.00165 2.44326,-4.51636 13.23985,-16.8305 33.55459,-32.14804 54.54728,-41.12924 18.18578,-7.78035 32.30465,-11.73377 65.88516,-18.44847 42.89119,-8.57645 60.81768,-14.92973 88.51411,-31.37004 11.12153,-6.60163 15.75239,-9.87214 25.38385,-17.92716 2.55906,-2.1402 4.9431,-3.601 5.29787,-3.24623 0.35478,0.35477 -0.83774,4.58085 -2.65004,9.39127 -24.70583,65.57731 -71.22622,123.225 -134.54579,166.72809 -10.7054,7.35504 -38.98056,24.10472 -37.99255,22.50608 z M 397.58302,821.15018 c -9.27881,-0.5294 -30.96184,-3.36532 -41.5,-5.42778 -47.42405,-9.28152 -85.63848,-25.04994 -126.5,-52.19769 -9.28802,-6.17081 -33,-24.40005 -33,-25.36966 0,-0.78847 5.88253,3.41465 14,10.00312 4.675,3.79443 13,9.82925 18.5,13.41072 5.5,3.58147 12.69571,8.2817 15.99047,10.44495 12.21088,8.01732 46.01131,24.15732 59.00953,28.17756 4.4,1.36088 10.98795,3.57911 14.6399,4.9294 3.65194,1.35028 11.07694,3.42489 16.5,4.61024 5.42305,1.18535 13.6851,3.02494 18.3601,4.08798 11.09815,2.52359 12.82985,2.81734 23.5,3.98631 33.1537,3.63215 62.17385,3.16974 88.80813,-1.41508 21.89505,-3.76901 44.17956,-9.19738 52.69187,-12.83543 2.475,-1.05778 9.225,-3.49961 15,-5.4263 9.23237,-3.08016 34.531,-14.31093 43.36589,-19.25135 13.78109,-7.70629 21.24908,-12.05341 28.13411,-16.37688 10.18423,-6.3952 30.60703,-21.92264 41.16059,-31.29437 5.77162,-5.12529 9.43092,-7.57737 12.5,-8.37618 2.38667,-0.62119 5.68941,-1.5369 7.33941,-2.03491 1.65,-0.49801 5.475,-1.65548 8.5,-2.57217 3.025,-0.91669 13.74345,-5.6982 23.81878,-10.62559 10.07533,-4.92739 18.52507,-8.7526 18.7772,-8.50047 0.66603,0.66603 -25.74266,14.03834 -34.85531,17.64934 -4.26763,1.69111 -12.3183,4.42911 -17.89038,6.08444 -9.28736,2.75907 -10.72312,3.53493 -17.24067,9.31657 -29.49075,26.16089 -66.47359,48.86878 -103.90961,63.80168 -49.59391,19.78259 -96.99025,27.98068 -145.70001,25.20155 z m -4.1875,-22.99934 c 0.72187,-0.28887 1.58438,-0.25335 1.91667,0.0789 0.33229,0.33229 -0.25834,0.56864 -1.3125,0.52522 -1.16495,-0.048 -1.4019,-0.28494 -0.60417,-0.60416 z m 34.94916,-0.0241 c 1.24391,-0.23919 3.04391,-0.23011 4,0.0202 0.95609,0.25029 -0.0617,0.446 -2.26166,0.4349 -2.2,-0.0111 -2.98225,-0.21589 -1.73834,-0.45508 z m 67.34653,-12.37596 c -0.30652,-10.15203 5.24572,-26.72073 13.87893,-41.41683 10.85204,-18.47316 26.99642,-32.99969 50.99431,-45.88413 9.61066,-5.15995 21.64919,-10.61587 23.424,-10.61587 0.52972,0 2.7927,-0.87163 5.02885,-1.93695 2.23614,-1.06532 10.81572,-4.19936 19.06572,-6.96454 52.04405,-17.44377 69.17052,-25.67237 99,-47.56567 10.4033,-7.63549 37.93362,-35.66849 44.60494,-45.41939 2.86491,-4.1874 8.05359,-11.71386 11.53038,-16.72547 3.4768,-5.01161 9.27565,-15.31466 12.88634,-22.89566 14.89866,-31.28124 19.52569,-45.47913 25.58026,-78.49232 1.69165,-9.22392 3.63934,-32.08552 3.36519,-39.5 -1.02092,-27.61121 -1.89697,-38.3143 -4.05159,-49.5 -1.32428,-6.875 -2.35803,-13.85 -2.29723,-15.5 0.15291,-4.14948 4.54453,18.42764 5.78608,29.74593 1.87504,17.09349 2.40985,41.7078 1.18967,54.75407 -4.35904,46.60735 -19.33613,89.21744 -44.72853,127.2535 -12.03675,18.03021 -17.45388,24.5746 -32.52759,39.29627 -19.27784,18.8276 -37.05083,31.53158 -59.33792,42.41423 -16.65615,8.13309 -24.72818,11.32257 -54.5,21.53445 -29.15473,10.00021 -40.36091,14.46097 -52,20.69928 -38.27324,20.51365 -58.79776,46.49903 -65.42079,82.82701 -0.96107,5.27155 -1.39473,6.41893 -1.47102,3.89204 z m -303.44152,-48.5835 c -0.93214,-0.93213 -0.83205,-2.33333 0.16666,-2.33333 0.45834,0 0.83334,0.675 0.83334,1.5 0,1.69935 -0.0731,1.76025 -1,0.83333 z m 17.20577,-14.08333 c -1.24387,-1.58606 -1.2085,-1.62143 0.37756,-0.37756 0.9625,0.75485 1.75,1.54235 1.75,1.75 0,0.82304 -0.82119,0.29331 -2.12756,-1.37244 z m 78.59626,-17.5 -5.9687,-6.25 6.25,5.9687 c 5.80572,5.54441 6.7076,6.5313 5.9687,6.5313 -0.15472,0 -2.96722,-2.8125 -6.25,-6.25 z M 740.48786,585.04851 c 11.04373,-11.6282 30.25958,-45.07168 38.25227,-66.57467 11.60886,-31.23168 15.77062,-53.16586 16.5338,-87.1399 0.44127,-19.64374 0.21689,-25.18887 -1.53762,-38 -6.98441,-50.99898 -24.66578,-90.31941 -54.50428,-121.20843 -12.51613,-12.95678 -30.97588,-29.71665 -40.64901,-36.9058 -9.66024,-7.17957 -26.06289,-18.53929 -33.39433,-23.12738 -3.90812,-2.44574 -6.00534,-4.1212 -4.6605,-3.72326 3.29169,0.97404 10.78372,5.59281 21.05483,12.98015 4.675,3.36242 11.65,8.31359 15.5,11.0026 11.77671,8.22538 37.1019,31.53863 50.49355,46.48213 30.32376,33.83772 49.48581,90.73654 49.33741,146.5 -0.0808,30.36518 -3.7951,53.72847 -12.87738,81 -3.48017,10.45 -7.14369,21.025 -8.14114,23.5 -2.31655,5.74812 -16.02192,30.08374 -22.80886,40.5 -5.16262,7.92333 -13.99066,18.5 -15.44141,18.5 -0.41388,0 0.86533,-1.70344 2.84267,-3.78543 z m -2.81459,-4.28091 c -0.0496,-1.41149 0.35566,-5.01149 0.90066,-8 2.48732,-13.63929 5.00909,-41.25391 5.00909,-54.85195 0,-14.26301 -2.02117,-39.72101 -3.94952,-49.74695 -2.40921,-12.52599 -7.40975,-33.35451 -9.54215,-39.74542 -7.65163,-22.93236 -20.21378,-48.60455 -31.36078,-64.08933 -5.46025,-7.58507 -19.93332,-25.3258 -25.60592,-31.38709 -7.34887,-7.85243 -27.72076,-25.26856 -37.54163,-32.0947 -10.57398,-7.34961 -14.65719,-10.67992 -13.95963,-11.38561 0.7631,-0.772 24.5991,17.07504 36.04831,26.99091 12.16388,10.53482 21.06852,19.92051 32.41715,34.16842 44.12799,55.40151 62.44793,130.23872 51.45835,210.20807 -1.58534,11.53626 -3.77332,22.79469 -3.87393,19.93366 z m -536.0113,-64.51698 c 0.048,-1.16495 0.28494,-1.4019 0.60416,-0.60417 0.28887,0.72187 0.25335,1.58438 -0.0789,1.91667 -0.3323,0.33229 -0.56864,-0.25834 -0.52522,-1.3125 z m 0,-19 c 0.048,-1.16495 0.28494,-1.4019 0.60416,-0.60417 0.28887,0.72187 0.25335,1.58438 -0.0789,1.91667 -0.3323,0.33229 -0.56864,-0.25834 -0.52522,-1.3125 z m -89,-20 c 0.048,-1.16495 0.28494,-1.4019 0.60416,-0.60417 0.28887,0.72187 0.25335,1.58438 -0.0789,1.91667 -0.3323,0.33229 -0.56864,-0.25834 -0.52522,-1.3125 z M 275.58302,324.33395 c 1.29175,-1.375 2.57363,-2.5 2.84863,-2.5 0.275,0 -0.55688,1.125 -1.84863,2.5 -1.29175,1.375 -2.57363,2.5 -2.84863,2.5 -0.275,0 0.55688,-1.125 1.84863,-2.5 z m 6,-5.87756 c 0,-0.20765 0.7875,-0.99515 1.75,-1.75 1.58606,-1.24387 1.62143,-1.2085 0.37756,0.37756 -1.30637,1.66575 -2.12756,2.19548 -2.12756,1.37244 z m 340.9181,-32.02376 c 0.66872,-0.80576 5.57322,-2.41765 10.89888,-3.58198 5.32566,-1.16433 15.30802,-3.41148 22.18302,-4.99366 6.875,-1.58217 16.68778,-3.66599 21.80617,-4.63069 12.84242,-2.42052 13.32632,-2.88598 9.21402,-8.863 -1.80668,-2.62592 -5.07112,-8.20677 -7.25432,-12.40188 -2.18319,-4.19511 -6.34416,-11.22747 -9.2466,-15.62747 -5.66493,-8.58784 -13.54899,-23.64343 -13.47271,-25.7278 0.0256,-0.69971 1.1998,0.9778 2.6093,3.7278 2.28315,4.45449 13.29672,23.324 27.62276,47.32594 3.16275,5.29889 4.62171,8.67373 4.01289,9.28255 -0.52614,0.52614 -12.39447,3.42236 -26.37406,6.43604 -27.90693,6.01609 -36.98353,8.1499 -40.73575,9.57649 -2.1186,0.80549 -2.3025,0.72946 -1.2636,-0.52234 z m -423.9181,-5.97624 c 0,-0.20765 0.7875,-0.99515 1.75,-1.75 1.58606,-1.24387 1.62143,-1.2085 0.37756,0.37756 -1.30637,1.66575 -2.12756,2.19548 -2.12756,1.37244 z m 297.75,-39.28472 c 0.6875,-0.27741 1.8125,-0.27741 2.5,0 0.6875,0.27741 0.125,0.50439 -1.25,0.50439 -1.375,0 -1.9375,-0.22698 -1.25,-0.50439 z m -60.9375,-77.02083 c 0.72187,-0.28887 1.58438,-0.25335 1.91667,0.0789 0.33229,0.33229 -0.25834,0.56864 -1.3125,0.52522 -1.16495,-0.048 -1.4019,-0.28494 -0.60417,-0.60416 z m 18.9375,-1.02262 c 1.2375,-0.23836 3.2625,-0.23836 4.5,0 1.2375,0.23835 0.225,0.43337 -2.25,0.43337 -2.475,0 -3.4875,-0.19502 -2.25,-0.43337 z m 20.5,0.0164 c 0.9625,-0.25152 2.5375,-0.25152 3.5,0 0.9625,0.25153 0.175,0.45733 -1.75,0.45733 -1.925,0 -2.7125,-0.2058 -1.75,-0.45733 z"
         id="path15"
         sodipodi:nodetypes="sssssssssssssssssssssssssssssssssssssssssssssssssssssssssssssssssssssssssssssssssssssssssssssssssssssssssssssssssssssssssssssssssssssssssssssssssssscssssssssssssssssssssssssssssssssssssssssssssssssssssssssssssssssssssssssssssssssssssssssssssss" />
      <path
         style="fill:#f6d2ad"
         d="m 476.84677,878.11637 c 1.52006,-0.22986 3.77006,-0.22371 5,0.0136 1.22994,0.23736 -0.0138,0.42542 -2.76375,0.41792 -2.75,-0.008 -3.75631,-0.20172 -2.23625,-0.43157 z m -25.51375,-0.9447 c 0.6875,-0.27741 1.8125,-0.27741 2.5,0 0.6875,0.27741 0.125,0.50439 -1.25,0.50439 -1.375,0 -1.9375,-0.22698 -1.25,-0.50439 z m 49,0 c 0.6875,-0.27741 1.8125,-0.27741 2.5,0 0.6875,0.27741 0.125,0.50439 -1.25,0.50439 -1.375,0 -1.9375,-0.22698 -1.25,-0.50439 z m -58.9375,-1.02083 c 0.72187,-0.28887 1.58438,-0.25335 1.91667,0.0789 0.33229,0.33229 -0.25834,0.56864 -1.3125,0.52522 -1.16495,-0.048 -1.4019,-0.28494 -0.60417,-0.60416 z m 124.6875,-7.31689 c 0.33992,-0.55 0.81648,-1 1.05902,-1 0.24254,0 0.44098,0.45 0.44098,1 0,0.55 -0.47656,1 -1.05902,1 -0.58246,0 -0.7809,-0.45 -0.44098,-1 z m 14.5,-8.42963 c 0,-0.275 0.9,-0.98167 2,-1.57037 1.1,-0.5887 2,-0.84537 2,-0.57037 0,0.275 -0.9,0.98167 -2,1.57037 -1.1,0.5887 -2,0.84537 -2,0.57037 z m 51.5,-35.57037 c 0.99549,-1.1 2.03498,-2 2.30998,-2 0.275,0 -0.31449,0.9 -1.30998,2 -0.99549,1.1 -2.03498,2 -2.30998,2 -0.275,0 0.31449,-0.9 1.30998,-2 z m 5,-4 c 0.99549,-1.1 2.03498,-2 2.30998,-2 0.275,0 -0.31449,0.9 -1.30998,2 -0.99549,1.1 -2.03498,2 -2.30998,2 -0.275,0 0.31449,-0.9 1.30998,-2 z m -239.25,0.31067 c 0.9625,-0.25152 2.5375,-0.25152 3.5,0 0.9625,0.25153 0.175,0.45733 -1.75,0.45733 -1.925,0 -2.7125,-0.2058 -1.75,-0.45733 z m 36.01903,-0.004 c 0.97297,-0.25354 2.32297,-0.23687 3,0.0371 0.67703,0.27393 -0.11903,0.48137 -1.76903,0.46099 -1.65,-0.0204 -2.20394,-0.2445 -1.23097,-0.49804 z m -48.45653,-0.99012 c 0.72187,-0.28887 1.58438,-0.25335 1.91667,0.0789 0.33229,0.33229 -0.25834,0.56864 -1.3125,0.52522 -1.16495,-0.048 -1.4019,-0.28494 -0.60417,-0.60416 z m 63,0 c 0.72187,-0.28887 1.58438,-0.25335 1.91667,0.0789 0.33229,0.33229 -0.25834,0.56864 -1.3125,0.52522 -1.16495,-0.048 -1.4019,-0.28494 -0.60417,-0.60416 z m -72,-1 c 0.72187,-0.28887 1.58438,-0.25335 1.91667,0.0789 0.33229,0.33229 -0.25834,0.56864 -1.3125,0.52522 -1.16495,-0.048 -1.4019,-0.28494 -0.60417,-0.60416 z m -7,-1 c 0.72187,-0.28887 1.58438,-0.25335 1.91667,0.0789 0.33229,0.33229 -0.25834,0.56864 -1.3125,0.52522 -1.16495,-0.048 -1.4019,-0.28494 -0.60417,-0.60416 z m 256.1875,-1.69411 c 0,-0.20765 0.7875,-0.99515 1.75,-1.75 1.58606,-1.24387 1.62143,-1.2085 0.37756,0.37756 -1.30637,1.66575 -2.12756,2.19548 -2.12756,1.37244 z m 18.5,-1.62244 c 0.99549,-1.1 2.03498,-2 2.30998,-2 0.275,0 -0.31449,0.9 -1.30998,2 -0.99549,1.1 -2.03498,2 -2.30998,2 -0.275,0 0.31449,-0.9 1.30998,-2 z m -309.6875,-3.68311 c 0.72187,-0.28887 1.58438,-0.25335 1.91667,0.0789 0.33229,0.33229 -0.25834,0.56864 -1.3125,0.52522 -1.16495,-0.048 -1.4019,-0.28494 -0.60417,-0.60416 z m 359.1875,0.30555 c 0,-0.20765 0.7875,-0.99515 1.75,-1.75 1.58606,-1.24387 1.62143,-1.2085 0.37756,0.37756 -1.30637,1.66575 -2.12756,2.19548 -2.12756,1.37244 z m -60,-2 c 0,-0.20765 0.7875,-0.99515 1.75,-1.75 1.58606,-1.24387 1.62143,-1.2085 0.37756,0.37756 -1.30637,1.66575 -2.12756,2.19548 -2.12756,1.37244 z m 28,-11.12244 c 6.30706,-6.325 11.69238,-11.5 11.96738,-11.5 0.275,0 -4.66032,5.175 -10.96738,11.5 -6.30706,6.325 -11.69238,11.5 -11.96738,11.5 -0.275,0 4.66032,-5.175 10.96738,-11.5 z m 40,7.12244 c 0,-0.20765 0.7875,-0.99515 1.75,-1.75 1.58606,-1.24387 1.62143,-1.2085 0.37756,0.37756 -1.30637,1.66575 -2.12756,2.19548 -2.12756,1.37244 z m -62,-0.93535 c 0,-0.1721 1.4625,-1.6346 3.25,-3.25 l 3.25,-2.93709 -2.93709,3.25 c -2.73778,3.02946 -3.56291,3.70965 -3.56291,2.93709 z m 67,-3.06465 c 0,-0.20765 0.7875,-0.99515 1.75,-1.75 1.58606,-1.24387 1.62143,-1.2085 0.37756,0.37756 -1.30637,1.66575 -2.12756,2.19548 -2.12756,1.37244 z m -455.12756,-4.37244 c -1.24387,-1.58606 -1.2085,-1.62143 0.37756,-0.37756 0.9625,0.75485 1.75,1.54235 1.75,1.75 0,0.82304 -0.82119,0.29331 -2.12756,-1.37244 z m 172.94006,1.06689 c 0.72187,-0.28887 1.58438,-0.25335 1.91667,0.0789 0.33229,0.33229 -0.25834,0.56864 -1.3125,0.52522 -1.16495,-0.048 -1.4019,-0.28494 -0.60417,-0.60416 z m 288.6875,-2.31689 c 0.99549,-1.1 2.03498,-2 2.30998,-2 0.275,0 -0.31449,0.9 -1.30998,2 -0.99549,1.1 -2.03498,2 -2.30998,2 -0.275,0 0.31449,-0.9 1.30998,-2 z m -468.09501,-4.25 -1.90499,-2.25 2.25,1.90499 c 2.11444,1.79022 2.70524,2.59501 1.90499,2.59501 -0.18976,0 -1.20226,-1.0125 -2.25,-2.25 z m 472.59501,0.93709 c 0,-0.1721 1.4625,-1.6346 3.25,-3.25 l 3.25,-2.93709 -2.93709,3.25 c -2.73778,3.02946 -3.56291,3.70965 -3.56291,2.93709 z m -481.59501,-8.93709 -1.90499,-2.25 2.25,1.90499 c 2.11444,1.79022 2.70524,2.59501 1.90499,2.59501 -0.18976,0 -1.20226,-1.0125 -2.25,-2.25 z m 260.67396,0.66667 c 0.048,-1.16495 0.28494,-1.4019 0.60416,-0.60417 0.28887,0.72187 0.25335,1.58438 -0.0789,1.91667 -0.33229,0.33229 -0.56864,-0.25834 -0.52522,-1.3125 z m 1.92105,1.20577 c 0,-0.20765 0.7875,-0.99515 1.75,-1.75 1.58606,-1.24387 1.62143,-1.2085 0.37756,0.37756 -1.30637,1.66575 -2.12756,2.19548 -2.12756,1.37244 z m 180,-5.12244 c 1.29175,-1.375 2.57363,-2.5 2.84863,-2.5 0.275,0 -0.55688,1.125 -1.84863,2.5 -1.29175,1.375 -2.57363,2.5 -2.84863,2.5 -0.275,0 0.55688,-1.125 1.84863,-2.5 z m -175.5,-0.5 c 0.99549,-1.1 2.03498,-2 2.30998,-2 0.275,0 -0.31449,0.9 -1.30998,2 -0.99549,1.1 -2.03498,2 -2.30998,2 -0.275,0 0.31449,-0.9 1.30998,-2 z m 234,-6 c 4.37419,-4.4 8.17808,-8 8.45308,-8 0.275,0 -3.07889,3.6 -7.45308,8 -4.37419,4.4 -8.17808,8 -8.45308,8 -0.275,0 3.07889,-3.6 7.45308,-8 z m -239.42105,4.41667 c 0.048,-1.16495 0.28494,-1.4019 0.60416,-0.60417 0.28887,0.72187 0.25335,1.58438 -0.0789,1.91667 -0.33229,0.33229 -0.56864,-0.25834 -0.52522,-1.3125 z m 167.92105,0.20577 c 0,-0.20765 0.7875,-0.99515 1.75,-1.75 1.58606,-1.24387 1.62143,-1.2085 0.37756,0.37756 -1.30637,1.66575 -2.12756,2.19548 -2.12756,1.37244 z m -152,-10.12244 c 3.54322,-3.575 6.66722,-6.5 6.94222,-6.5 0.275,0 -2.399,2.925 -5.94222,6.5 -3.54322,3.575 -6.66722,6.5 -6.94222,6.5 -0.275,0 2.399,-2.925 5.94222,-6.5 z m 170,6.12244 c 0,-0.20765 0.7875,-0.99515 1.75,-1.75 1.58606,-1.24387 1.62143,-1.2085 0.37756,0.37756 -1.30637,1.66575 -2.12756,2.19548 -2.12756,1.37244 z m 4,-5 c 0,-0.20765 0.7875,-0.99515 1.75,-1.75 1.58606,-1.24387 1.62143,-1.2085 0.37756,0.37756 -1.30637,1.66575 -2.12756,2.19548 -2.12756,1.37244 z m 4.5,-5.62244 c 0.99549,-1.1 2.03498,-2 2.30998,-2 0.275,0 -0.31449,0.9 -1.30998,2 -0.99549,1.1 -2.03498,2 -2.30998,2 -0.275,0 0.31449,-0.9 1.30998,-2 z m -14.5,0.62244 c 0,-0.20765 0.7875,-0.99515 1.75,-1.75 1.58606,-1.24387 1.62143,-1.2085 0.37756,0.37756 -1.30637,1.66575 -2.12756,2.19548 -2.12756,1.37244 z m -466.05383,-5.37244 -3.44617,-3.75 3.75,3.44617 c 2.0625,1.89539 3.75,3.58289 3.75,3.75 0,0.76362 -0.84622,0.0442 -4.05383,-3.44617 z m 539.05383,0.25 c 1.86578,-1.925 3.61733,-3.5 3.89233,-3.5 0.275,0 -1.02655,1.575 -2.89233,3.5 -1.86578,1.925 -3.61733,3.5 -3.89233,3.5 -0.275,0 1.02655,-1.575 2.89233,-3.5 z m -56,1.12244 c 0,-0.20765 0.7875,-0.99515 1.75,-1.75 1.58606,-1.24387 1.62143,-1.2085 0.37756,0.37756 -1.30637,1.66575 -2.12756,2.19548 -2.12756,1.37244 z m -167,-4 c 0,-0.20765 0.7875,-0.99515 1.75,-1.75 1.58606,-1.24387 1.62143,-1.2085 0.37756,0.37756 -1.30637,1.66575 -2.12756,2.19548 -2.12756,1.37244 z m 158,-2 c 0,-0.20765 0.7875,-0.99515 1.75,-1.75 1.58606,-1.24387 1.62143,-1.2085 0.37756,0.37756 -1.30637,1.66575 -2.12756,2.19548 -2.12756,1.37244 z m 70.5,-1.62244 c 0.99549,-1.1 2.03498,-2 2.30998,-2 0.275,0 -0.31449,0.9 -1.30998,2 -0.99549,1.1 -2.03498,2 -2.30998,2 -0.275,0 0.31449,-0.9 1.30998,-2 z m -553.62756,-3.75 c -1.24387,-1.58606 -1.2085,-1.62143 0.37756,-0.37756 1.66575,1.30637 2.19548,2.12756 1.37244,2.12756 -0.20765,0 -0.99515,-0.7875 -1.75,-1.75 z m 424.12756,0.37244 c 0,-0.20765 0.7875,-0.99515 1.75,-1.75 1.58606,-1.24387 1.62143,-1.2085 0.37756,0.37756 -1.30637,1.66575 -2.12756,2.19548 -2.12756,1.37244 z m 134.5,-2.62244 c 0.99549,-1.1 2.03498,-2 2.30998,-2 0.275,0 -0.31449,0.9 -1.30998,2 -0.99549,1.1 -2.03498,2 -2.30998,2 -0.275,0 0.31449,-0.9 1.30998,-2 z m -129.5,-1.37756 c 0,-0.20765 0.7875,-0.99515 1.75,-1.75 1.58606,-1.24387 1.62143,-1.2085 0.37756,0.37756 -1.30637,1.66575 -2.12756,2.19548 -2.12756,1.37244 z m -431.12756,-3.37244 c -1.24387,-1.58606 -1.2085,-1.62143 0.37756,-0.37756 0.9625,0.75485 1.75,1.54235 1.75,1.75 0,0.82304 -0.82119,0.29331 -2.12756,-1.37244 z m 564.12756,0.37244 c 0,-0.20765 0.7875,-0.99515 1.75,-1.75 1.58606,-1.24387 1.62143,-1.2085 0.37756,0.37756 -1.30637,1.66575 -2.12756,2.19548 -2.12756,1.37244 z m -570.66667,-5.07845 c 0,-0.80081 0.38234,-1.21971 0.84965,-0.9309 0.4673,0.28881 0.59075,0.94401 0.27431,1.45601 -0.80862,1.30838 -1.12396,1.16106 -1.12396,-0.52511 z m 365.66667,0.45601 c 0.825,-0.53316 1.95,-0.96937 2.5,-0.96937 0.55,0 0.325,0.43621 -0.5,0.96937 -0.825,0.53316 -1.95,0.96937 -2.5,0.96937 -0.55,0 -0.325,-0.43621 0.5,-0.96937 z m 208,0.62244 c 0,-0.20765 0.7875,-0.99515 1.75,-1.75 1.58606,-1.24387 1.62143,-1.2085 0.37756,0.37756 -1.30637,1.66575 -2.12756,2.19548 -2.12756,1.37244 z m -249.5,-4.62244 c 0.99549,-1.1 2.03498,-2 2.30998,-2 0.275,0 -0.31449,0.9 -1.30998,2 -0.99549,1.1 -2.03498,2 -2.30998,2 -0.275,0 0.31449,-0.9 1.30998,-2 z m 126.5,0.62244 c 0,-0.20765 0.7875,-0.99515 1.75,-1.75 1.58606,-1.24387 1.62143,-1.2085 0.37756,0.37756 -1.30637,1.66575 -2.12756,2.19548 -2.12756,1.37244 z m -119.04179,-8.87244 c 2.45201,-2.6125 4.58951,-4.75 4.75,-4.75 0.75088,0 -0.043,0.89783 -4.45821,5.04179 l -4.75,4.45821 z m 78.85429,-1.43311 c 0.72187,-0.28887 1.58438,-0.25335 1.91667,0.0789 0.33229,0.33229 -0.25834,0.56864 -1.3125,0.52522 -1.16495,-0.048 -1.4019,-0.28494 -0.60417,-0.60416 z m 4,-1 c 0.72187,-0.28887 1.58438,-0.25335 1.91667,0.0789 0.33229,0.33229 -0.25834,0.56864 -1.3125,0.52522 -1.16495,-0.048 -1.4019,-0.28494 -0.60417,-0.60416 z m 5,-1 c 0.72187,-0.28887 1.58438,-0.25335 1.91667,0.0789 0.33229,0.33229 -0.25834,0.56864 -1.3125,0.52522 -1.16495,-0.048 -1.4019,-0.28494 -0.60417,-0.60416 z m 5,-1 c 0.72187,-0.28887 1.58438,-0.25335 1.91667,0.0789 0.33229,0.33229 -0.25834,0.56864 -1.3125,0.52522 -1.16495,-0.048 -1.4019,-0.28494 -0.60417,-0.60416 z m -83.3125,-4.31689 c 0.99549,-1.1 2.03498,-2 2.30998,-2 0.275,0 -0.31449,0.9 -1.30998,2 -0.99549,1.1 -2.03498,2 -2.30998,2 -0.275,0 0.31449,-0.9 1.30998,-2 z m 99.3125,1.31689 c 0.72187,-0.28887 1.58438,-0.25335 1.91667,0.0789 0.33229,0.33229 -0.25834,0.56864 -1.3125,0.52522 -1.16495,-0.048 -1.4019,-0.28494 -0.60417,-0.60416 z m 10,-2 c 0.72187,-0.28887 1.58438,-0.25335 1.91667,0.0789 0.33229,0.33229 -0.25834,0.56864 -1.3125,0.52522 -1.16495,-0.048 -1.4019,-0.28494 -0.60417,-0.60416 z m -105.8125,-1.69445 c 0,-0.20765 0.7875,-0.99515 1.75,-1.75 1.58606,-1.24387 1.62143,-1.2085 0.37756,0.37756 -1.30637,1.66575 -2.12756,2.19548 -2.12756,1.37244 z m 13,-9.05207 c 0,-0.275 0.9,-0.98167 2,-1.57037 1.1,-0.5887 2,-0.84537 2,-0.57037 0,0.275 -0.9,0.98167 -2,1.57037 -1.1,0.5887 -2,0.84537 -2,0.57037 z m 242,-6.57037 c 0.5887,-1.1 1.29537,-2 1.57037,-2 0.275,0 0.0183,0.9 -0.57037,2 -0.5887,1.1 -1.29537,2 -1.57037,2 -0.275,0 -0.0183,-0.9 0.57037,-2 z m -61.96937,0.5 c 0,-0.55 0.43621,-1.675 0.96937,-2.5 0.53316,-0.825 0.96937,-1.05 0.96937,-0.5 0,0.55 -0.43621,1.675 -0.96937,2.5 -0.53316,0.825 -0.96937,1.05 -0.96937,0.5 z m -32.03063,-2.94864 c 0,-0.275 1.35,-1.19811 3,-2.05136 1.65,-0.85325 3,-1.32636 3,-1.05136 0,0.275 -1.35,1.19811 -3,2.05136 -1.65,0.85325 -3,1.32636 -3,1.05136 z m 99.56429,-7.84449 c 0.37553,-0.98622 0.93469,-1.54122 1.24258,-1.23333 0.30789,0.30789 6.4e-4,1.11479 -0.68278,1.79313 -0.98762,0.98026 -1.10248,0.8654 -0.5598,-0.5598 z m -75.56429,-6.08443 c 0,-0.20765 0.7875,-0.99515 1.75,-1.75 1.58606,-1.24387 1.62143,-1.2085 0.37756,0.37756 -1.30637,1.66575 -2.12756,2.19548 -2.12756,1.37244 z m 4,-3 c 0,-0.20765 0.7875,-0.99515 1.75,-1.75 1.58606,-1.24387 1.62143,-1.2085 0.37756,0.37756 -1.30637,1.66575 -2.12756,2.19548 -2.12756,1.37244 z m 5.5,-4.62244 c 0.99549,-1.1 2.03498,-2 2.30998,-2 0.275,0 -0.31449,0.9 -1.30998,2 -0.99549,1.1 -2.03498,2 -2.30998,2 -0.275,0 0.31449,-0.9 1.30998,-2 z m 5.5,-4.37756 c 0,-0.20765 0.7875,-0.99515 1.75,-1.75 1.58606,-1.24387 1.62143,-1.2085 0.37756,0.37756 -1.30637,1.66575 -2.12756,2.19548 -2.12756,1.37244 z m 4.65066,-2.09041 c -0.30982,-0.80739 -0.13297,-1.73395 0.39301,-2.05902 0.52598,-0.32508 0.95633,0.33551 0.95633,1.46797 0,2.41457 -0.55611,2.65816 -1.34934,0.59105 z m -79.91733,-8.65612 c 0.67834,-0.68342 1.48524,-0.99067 1.79313,-0.68278 0.30789,0.30789 -0.24711,0.86705 -1.23333,1.24258 -1.4252,0.54268 -1.54006,0.42782 -0.5598,-0.5598 z m 41.26667,-24.25347 c 0,-0.20765 0.7875,-0.99515 1.75,-1.75 1.58606,-1.24387 1.62143,-1.2085 0.37756,0.37756 -1.30637,1.66575 -2.12756,2.19548 -2.12756,1.37244 z m 4,-3 c 0,-0.20765 0.7875,-0.99515 1.75,-1.75 1.58606,-1.24387 1.62143,-1.2085 0.37756,0.37756 -1.30637,1.66575 -2.12756,2.19548 -2.12756,1.37244 z m 6,-5 c 0,-0.20765 0.7875,-0.99515 1.75,-1.75 1.58606,-1.24387 1.62143,-1.2085 0.37756,0.37756 -1.30637,1.66575 -2.12756,2.19548 -2.12756,1.37244 z m 15.5,-14.62244 c 5.47936,-5.5 10.18748,-10 10.46248,-10 0.275,0 -3.98312,4.5 -9.46248,10 -5.47936,5.5 -10.18748,10 -10.46248,10 -0.275,0 3.98312,-4.5 9.46248,-10 z m 99.57895,-11.58333 c 0.048,-1.16495 0.28494,-1.4019 0.60416,-0.60417 0.28887,0.72187 0.25335,1.58438 -0.0789,1.91667 -0.33229,0.33229 -0.56864,-0.25834 -0.52522,-1.3125 z m -86.07895,-2.79423 c 0,-0.20765 0.7875,-0.99515 1.75,-1.75 1.58606,-1.24387 1.62143,-1.2085 0.37756,0.37756 -1.30637,1.66575 -2.12756,2.19548 -2.12756,1.37244 z m 87.15789,-2.62244 c 0,-1.375 0.22698,-1.9375 0.50439,-1.25 0.27741,0.6875 0.27741,1.8125 0,2.5 -0.27741,0.6875 -0.50439,0.125 -0.50439,-1.25 z m 1,-6 c 0,-1.375 0.22698,-1.9375 0.50439,-1.25 0.27741,0.6875 0.27741,1.8125 0,2.5 -0.27741,0.6875 -0.50439,0.125 -0.50439,-1.25 z m -78.15789,-4.37756 c 0,-0.20765 0.7875,-0.99515 1.75,-1.75 1.58606,-1.24387 1.62143,-1.2085 0.37756,0.37756 -1.30637,1.66575 -2.12756,2.19548 -2.12756,1.37244 z m 79.07895,-2.20577 c 0.048,-1.16495 0.28494,-1.4019 0.60416,-0.60417 0.28887,0.72187 0.25335,1.58438 -0.0789,1.91667 -0.33229,0.33229 -0.56864,-0.25834 -0.52522,-1.3125 z m 1.116,-6.91667 c 0.0204,-1.65 0.2445,-2.20394 0.49804,-1.23097 0.25354,0.97297 0.23687,2.32297 -0.0371,3 -0.27393,0.67703 -0.48137,-0.11903 -0.46099,-1.76903 z m 1.03705,-10.5 c 0,-1.925 0.2058,-2.7125 0.45733,-1.75 0.25152,0.9625 0.25152,2.5375 0,3.5 -0.25153,0.9625 -0.45733,0.175 -0.45733,-1.75 z m 0.96295,-9.50001 c 0.0204,-1.65 0.2445,-2.20394 0.49804,-1.23097 0.25354,0.97297 0.23687,2.32297 -0.0371,3 -0.27393,0.67703 -0.48137,-0.11903 -0.46099,-1.76903 z m -93.116,-6.08333 c 0.048,-1.16495 0.28494,-1.4019 0.60416,-0.60417 0.28887,0.72187 0.25335,1.58438 -0.0789,1.91667 -0.33229,0.33229 -0.56864,-0.25834 -0.52522,-1.3125 z m 36.12265,-5.89473 c 1.19659,-2.46293 2.34713,-4.30654 2.55677,-4.09691 0.45238,0.45239 -3.58827,8.57497 -4.2657,8.57497 -0.25667,0 0.51235,-2.01513 1.70893,-4.47806 z m 58.10827,-7.02194 c 0.006,-3.3 0.1923,-4.52944 0.41486,-2.73209 0.22256,1.79735 0.21797,4.49735 -0.0102,6 -0.22818,1.50265 -0.41027,0.0321 -0.40466,-3.26791 z m -93.23092,1.91667 c 0.048,-1.16495 0.28494,-1.4019 0.60416,-0.60417 0.28887,0.72187 0.25335,1.58438 -0.0789,1.91667 -0.33229,0.33229 -0.56864,-0.25834 -0.52522,-1.3125 z m 1.22071,-17.41667 c 0,-3.025 0.18747,-4.2625 0.41659,-2.75 0.22913,1.5125 0.22913,3.9875 0,5.5 -0.22912,1.5125 -0.41659,0.275 -0.41659,-2.75 z m -0.0677,-9 c 0,-1.925 0.2058,-2.7125 0.45733,-1.75 0.25152,0.9625 0.25152,2.5375 0,3.5 -0.25153,0.9625 -0.45733,0.175 -0.45733,-1.75 z m 92.05401,-1.5 c 0.008,-2.75 0.20172,-3.75631 0.43157,-2.23625 0.22986,1.52006 0.22371,3.77006 -0.0136,5 -0.23736,1.22994 -0.42542,-0.0138 -0.41792,-2.76375 z m -1.05397,-17.5 c 0,-1.925 0.2058,-2.7125 0.45733,-1.75 0.25152,0.9625 0.25152,2.5375 0,3.5 -0.25153,0.9625 -0.45733,0.175 -0.45733,-1.75 z m -92.07411,0 c 0,-1.375 0.22698,-1.9375 0.50439,-1.25 0.27741,0.6875 0.27741,1.8125 0,2.5 -0.27741,0.6875 -0.50439,0.125 -0.50439,-1.25 z m 55.92106,-8.58333 c 0.048,-1.16495 0.28494,-1.4019 0.60416,-0.60417 0.28887,0.72187 0.25335,1.58438 -0.0789,1.91667 -0.33229,0.33229 -0.56864,-0.25834 -0.52522,-1.3125 z m -57,-2 c 0.048,-1.16495 0.28494,-1.4019 0.60416,-0.60417 0.28887,0.72187 0.25335,1.58438 -0.0789,1.91667 -0.33229,0.33229 -0.56864,-0.25834 -0.52522,-1.3125 z m 92.116,-0.91667 c 0.0204,-1.65 0.2445,-2.20394 0.49804,-1.23097 0.25354,0.97297 0.23687,2.32297 -0.0371,3 -0.27393,0.67703 -0.48137,-0.11903 -0.46099,-1.76903 z m -34.116,-2.08333 c 0.048,-1.16495 0.28494,-1.4019 0.60416,-0.60417 0.28887,0.72187 0.25335,1.58438 -0.0789,1.91667 -0.33229,0.33229 -0.56864,-0.25834 -0.52522,-1.3125 z m -11,-1 c 0.048,-1.16495 0.28494,-1.4019 0.60416,-0.60417 0.28887,0.72187 0.25335,1.58438 -0.0789,1.91667 -0.33229,0.33229 -0.56864,-0.25834 -0.52522,-1.3125 z m 12,-4 c 0.048,-1.16495 0.28494,-1.4019 0.60416,-0.60417 0.28887,0.72187 0.25335,1.58438 -0.0789,1.91667 -0.33229,0.33229 -0.56864,-0.25834 -0.52522,-1.3125 z m 32.07894,-1.41667 c 0,-1.375 0.22698,-1.9375 0.50439,-1.25 0.27741,0.6875 0.27741,1.8125 0,2.5 -0.27741,0.6875 -0.50439,0.125 -0.50439,-1.25 z m -31,-4 c 0,-1.375 0.22698,-1.9375 0.50439,-1.25 0.27741,0.6875 0.27741,1.8125 0,2.5 -0.27741,0.6875 -0.50439,0.125 -0.50439,-1.25 z m 30,-3 c 0,-1.375 0.22698,-1.9375 0.50439,-1.25 0.27741,0.6875 0.27741,1.8125 0,2.5 -0.27741,0.6875 -0.50439,0.125 -0.50439,-1.25 z m -29.07894,-2.58333 c 0.048,-1.16495 0.28494,-1.4019 0.60416,-0.60417 0.28887,0.72187 0.25335,1.58438 -0.0789,1.91667 -0.33229,0.33229 -0.56864,-0.25834 -0.52522,-1.3125 z m 28,-5 c 0.048,-1.16495 0.28494,-1.4019 0.60416,-0.60417 0.28887,0.72187 0.25335,1.58438 -0.0789,1.91667 -0.33229,0.33229 -0.56864,-0.25834 -0.52522,-1.3125 z m -26.884,-2.91667 c 0.0204,-1.65 0.2445,-2.20394 0.49804,-1.23097 0.25354,0.97297 0.23687,2.32297 -0.0371,3 -0.27393,0.67703 -0.48137,-0.11903 -0.46099,-1.76903 z m -11.116,-1.08333 c 0.048,-1.16495 0.28494,-1.4019 0.60416,-0.60417 0.28887,0.72187 0.25335,1.58438 -0.0789,1.91667 -0.33229,0.33229 -0.56864,-0.25834 -0.52522,-1.3125 z m 12.15305,-9.41667 c 0,-1.925 0.2058,-2.7125 0.45733,-1.75 0.25152,0.9625 0.25152,2.5375 0,3.5 -0.25153,0.9625 -0.45733,0.175 -0.45733,-1.75 z m -11.15305,-1.58333 c 0.048,-1.16495 0.28494,-1.4019 0.60416,-0.60417 0.28887,0.72187 0.25335,1.58438 -0.0789,1.91667 -0.33229,0.33229 -0.56864,-0.25834 -0.52522,-1.3125 z m 11.23092,-33.91666 c 0.006,-3.3 0.1923,-4.52944 0.41486,-2.73209 0.22256,1.79735 0.21797,4.49735 -0.0102,6 -0.22818,1.50265 -0.41027,0.0321 -0.40466,-3.26791 z m -11.15198,-4.5 c 0,-1.375 0.22698,-1.9375 0.50439,-1.25 0.27741,0.6875 0.27741,1.8125 0,2.5 -0.27741,0.6875 -0.50439,0.125 -0.50439,-1.25 z m 10.03706,-9.5 c 0.0204,-1.65 0.2445,-2.20394 0.49804,-1.23097 0.25354,0.97297 0.23687,2.32297 -0.0371,3 -0.27393,0.67703 -0.48137,-0.11903 -0.46099,-1.76903 z m -1.03706,-9.5 c 0,-1.375 0.22698,-1.9375 0.50439,-1.25 0.27741,0.6875 0.27741,1.8125 0,2.5 -0.27741,0.6875 -0.50439,0.125 -0.50439,-1.25 z m -1.07894,-6.58333 c 0.048,-1.16495 0.28494,-1.4019 0.60416,-0.60417 0.28887,0.72187 0.25335,1.58438 -0.0789,1.91667 -0.33229,0.33229 -0.56864,-0.25834 -0.52522,-1.3125 z m -1,-5 c 0.048,-1.16495 0.28494,-1.4019 0.60416,-0.60417 0.28887,0.72187 0.25335,1.58438 -0.0789,1.91667 -0.33229,0.33229 -0.56864,-0.25834 -0.52522,-1.3125 z m 2.54459,-5.95533 c -0.96498,-2.51469 -0.68031,-3.16355 0.49853,-1.13634 0.58369,1.00375 0.8506,2.03566 0.59313,2.29313 -0.25747,0.25747 -0.74872,-0.26309 -1.09166,-1.15679 z m -110.7511,-14.21134 c -1.24387,-1.58606 -1.2085,-1.62143 0.37756,-0.37756 0.9625,0.75485 1.75,1.54235 1.75,1.75 0,0.82304 -0.82119,0.29331 -2.12756,-1.37244 z m -7.46745,-9.5 -1.90499,-2.25 2.25,1.90499 c 1.2375,1.04774 2.25,2.06024 2.25,2.25 0,0.80025 -0.80479,0.20945 -2.59501,-1.90499 z m -5.53255,-6.5 c -1.24387,-1.58606 -1.2085,-1.62143 0.37756,-0.37756 0.9625,0.75485 1.75,1.54235 1.75,1.75 0,0.82304 -0.82119,0.29331 -2.12756,-1.37244 z m -7.94813,-9 -2.42431,-2.75 2.75,2.42431 c 1.5125,1.33338 2.75,2.57088 2.75,2.75 0,0.78428 -0.8098,0.14598 -3.07569,-2.42431 z m -14,-13 -2.42431,-2.75 2.75,2.42431 c 1.5125,1.33338 2.75,2.57088 2.75,2.75 0,0.78428 -0.8098,0.14598 -3.07569,-2.42431 z m -7.05187,-6 c -1.24387,-1.58606 -1.2085,-1.62143 0.37756,-0.37756 0.9625,0.75485 1.75,1.54235 1.75,1.75 0,0.82304 -0.82119,0.29331 -2.12756,-1.37244 z m -29.32973,-22.1809 c -0.31644,-0.512 -0.19299,-1.1672 0.27431,-1.45601 0.46731,-0.28881 0.84965,0.13009 0.84965,0.9309 0,1.68617 -0.31534,1.83349 -1.12396,0.52511 z m 15.26979,-5.75221 c 0.72187,-0.28887 1.58438,-0.25335 1.91667,0.0789 0.33229,0.33229 -0.25834,0.56864 -1.3125,0.52522 -1.16495,-0.048 -1.4019,-0.28494 -0.60417,-0.60416 z m 108.05994,-4.06689 c -1.24387,-1.58606 -1.2085,-1.62143 0.37756,-0.37756 1.66575,1.30637 2.19548,2.12756 1.37244,2.12756 -0.20765,0 -0.99515,-0.7875 -1.75,-1.75 z m -61.87244,-22.25 c -0.5887,-1.1 -0.84537,-2 -0.57037,-2 0.275,0 0.98167,0.9 1.57037,2 0.5887,1.1 0.84537,2 0.57037,2 -0.275,0 -0.98167,-0.9 -1.57037,-2 z m 37.40499,-2.25 -1.90499,-2.25 2.25,1.90499 c 2.11444,1.79022 2.70524,2.59501 1.90499,2.59501 -0.18976,0 -1.20226,-1.0125 -2.25,-2.25 z m -8.53255,-7.5 c -1.24387,-1.58606 -1.2085,-1.62143 0.37756,-0.37756 1.66575,1.30637 2.19548,2.12756 1.37244,2.12756 -0.20765,0 -0.99515,-0.7875 -1.75,-1.75 z m -7.46745,-6.5 -1.90499,-2.25 2.25,1.90499 c 1.2375,1.04774 2.25,2.06024 2.25,2.25 0,0.80025 -0.80479,0.20945 -2.59501,-1.90499 z m -231.13596,-0.44299 c 0.97297,-0.25354 2.32297,-0.23687 3,0.0371 0.67703,0.27393 -0.11903,0.48137 -1.76903,0.46099 -1.65,-0.0204 -2.20394,-0.2445 -1.23097,-0.49804 z m 222.60341,-6.05701 c -1.24387,-1.58606 -1.2085,-1.62143 0.37756,-0.37756 1.66575,1.30637 2.19548,2.12756 1.37244,2.12756 -0.20765,0 -0.99515,-0.7875 -1.75,-1.75 z m -39.87244,-25.25 c 0,-0.55 0.47656,-1 1.05902,-1 0.58246,0 0.7809,0.45 0.44098,1 -0.33992,0.55 -0.81648,1 -1.05902,1 -0.24254,0 -0.44098,-0.45 -0.44098,-1 z m -193.2723,-45.72173 c 1.77523,-0.22091 4.92523,-0.22454 7,-0.008 2.07476,0.21648 0.6223,0.39722 -3.2277,0.40166 -3.85,0.004 -5.54754,-0.17268 -3.7723,-0.39359 z"
         id="path14"
         sodipodi:nodetypes="sscssssssssssssssssssssssssssssssssssssssssssssssssssssssssssssssssssssssssssssssssssssssssssssssssscssssssssssssssssssssscssssscssscssssssssssssssssssssssssssssssssssssssssssssssssssssssssssscssssssssssssssssssssssssssssssssssssssssssssssssssssssssssssssssssssssssssscssssssssssssssssssssssssssssssssssssssssssssssssssssssssssssssssssssssssssssssssssssssssssssssssssssssssssssssssssssssssssssssssssssssssssssssssssssssssssssscsscssssssssssssssssssssssssssssssssssssssssssssssssssssssssssssssssssssssssssssssssssssssssssssssssscsscsssssssssssssssssssssssssssssssscsssssssscsssscsssssssssssssssssssssssssscsssssssscssssssssssssssscscsc" />
      <path
         style="fill:#deb38b"
         d="m 456.83302,877.1177 c 1.5125,-0.22913 3.9875,-0.22913 5.5,0 1.5125,0.22912 0.275,0.41659 -2.75,0.41659 -3.025,0 -4.2625,-0.18747 -2.75,-0.41659 z m 37.51166,0.009 c 1.24391,-0.23919 3.04391,-0.23011 4,0.0202 0.95609,0.25029 -0.0617,0.446 -2.26166,0.4349 -2.2,-0.0111 -2.98225,-0.21589 -1.73834,-0.45508 z m -50.01166,-0.95503 c 0.6875,-0.27741 1.8125,-0.27741 2.5,0 0.6875,0.27741 0.125,0.50439 -1.25,0.50439 -1.375,0 -1.9375,-0.22698 -1.25,-0.50439 z m 62,0 c 0.6875,-0.27741 1.8125,-0.27741 2.5,0 0.6875,0.27741 0.125,0.50439 -1.25,0.50439 -1.375,0 -1.9375,-0.22698 -1.25,-0.50439 z m -69.9375,-1.02083 c 0.72187,-0.28887 1.58438,-0.25335 1.91667,0.0789 0.33229,0.33229 -0.25834,0.56864 -1.3125,0.52522 -1.16495,-0.048 -1.4019,-0.28494 -0.60417,-0.60416 z m -14,-2 c 0.72187,-0.28887 1.58438,-0.25335 1.91667,0.0789 0.33229,0.33229 -0.25834,0.56864 -1.3125,0.52522 -1.16495,-0.048 -1.4019,-0.28494 -0.60417,-0.60416 z m 145.1875,-4.69232 c 0,-0.20648 4.8375,-3.08501 10.75,-6.39671 5.9125,-3.31171 15.7,-9.22178 21.75,-13.13348 11.30923,-7.31214 11.12832,-6.9517 -1,1.99237 -3.85,2.83919 -8.40943,5.76503 -10.13207,6.50186 -6.23234,2.66577 -10.5647,5.67174 -9.3005,6.45307 0.67105,0.41473 2.52837,0.29798 4.12738,-0.25943 1.599,-0.55742 3.11989,-0.80089 3.37974,-0.54104 0.25985,0.25985 -3.71882,1.66188 -8.84149,3.11562 -9.40402,2.66874 -10.73306,2.94954 -10.73306,2.26774 z m 21,-6.08583 c 0,-0.25369 2.1375,-1.10782 4.75,-1.89806 2.6125,-0.79025 9.22259,-3.0476 14.68908,-5.01633 5.46649,-1.96874 10.09796,-3.42064 10.29215,-3.22645 0.19419,0.19419 -4.95339,2.24552 -11.43908,4.55852 -6.48568,2.31299 -12.82582,4.61902 -14.0892,5.12451 -2.49825,0.99957 -4.20295,1.18526 -4.20295,0.45781 z m 35.5,-13.06335 c 2.75,-1.32161 10.83213,-5.16335 17.9603,-8.5372 33.84894,-16.02115 71.71012,-43.72251 99.42896,-72.74779 12.85039,-13.45605 36.94304,-43.91704 38.90639,-49.1904 0.30716,-0.825 0.86245,-1.725 1.23399,-2 1.4577,-1.07894 12.32914,-20.0023 18.34099,-31.92522 5.81371,-11.52999 10.18144,-21.91623 17.06292,-40.57478 3.16318,-8.57669 8.87565,-29.52513 11.10255,-40.71459 0.90691,-4.55698 2.04479,-9.86041 2.52862,-11.78541 1.96469,-7.81697 -0.23765,6.70893 -2.71809,17.92759 -5.77924,26.13858 -16.1606,54.38205 -29.31346,79.75004 -35.81381,69.07428 -95.77103,125.57005 -166.89702,157.2617 -11.66662,5.19831 -16.55152,6.82064 -7.63615,2.53606 z m -10.00689,-9.65122 c 19.00793,-14.75981 21.94229,-16.84468 16.6451,-11.82637 -2.94898,2.79373 -7.89898,6.78374 -11,8.86671 -6.90392,4.63738 -9.68021,6.09296 -5.6451,2.95966 z M 415.83302,822.09891 c 2.6125,-0.206 6.8875,-0.206 9.5,0 2.6125,0.206 0.475,0.37454 -4.75,0.37454 -5.225,0 -7.3625,-0.16854 -4.75,-0.37454 z m 227.25,-5.4298 c 27.89168,-25.07032 51.19459,-51.85642 66.19124,-76.08516 7.14704,-11.54682 9.53469,-14.4017 4.1817,-5 -5.58324,9.80609 -10.08806,16.39871 -17.93912,26.25314 -4.1614,5.22327 -8.41253,10.84686 -9.44695,12.49686 -1.67547,2.67254 -17.25063,19.25467 -30.99164,32.99535 -2.75263,2.75256 -8.15263,7.39574 -12,10.31819 l -6.99523,5.31354 z m -251.25,4.47551 c 0.9625,-0.25152 2.5375,-0.25152 3.5,0 0.9625,0.25153 0.175,0.45733 -1.75,0.45733 -1.925,0 -2.7125,-0.2058 -1.75,-0.45733 z m 47,0 c 0.9625,-0.25152 2.5375,-0.25152 3.5,0 0.9625,0.25153 0.175,0.45733 -1.75,0.45733 -1.925,0 -2.7125,-0.2058 -1.75,-0.45733 z m -57.5,-0.97295 c 0.6875,-0.27741 1.8125,-0.27741 2.5,0 0.6875,0.27741 0.125,0.50439 -1.25,0.50439 -1.375,0 -1.9375,-0.22698 -1.25,-0.50439 z m 70.0625,-0.0208 c 0.72187,-0.28887 1.58438,-0.25335 1.91667,0.0789 0.33229,0.33229 -0.25834,0.56864 -1.3125,0.52522 -1.16495,-0.048 -1.4019,-0.28494 -0.60417,-0.60416 z m -78,-1 c 0.72187,-0.28887 1.58438,-0.25335 1.91667,0.0789 0.33229,0.33229 -0.25834,0.56864 -1.3125,0.52522 -1.16495,-0.048 -1.4019,-0.28494 -0.60417,-0.60416 z m 256.6875,-7.31692 c 0.99549,-1.1 2.03498,-2 2.30998,-2 0.275,0 -0.31449,0.9 -1.30998,2 -0.99549,1.1 -2.03498,2 -2.30998,2 -0.275,0 0.31449,-0.9 1.30998,-2 z m 6.5,-5.37756 c 0,-0.20765 0.7875,-0.99515 1.75,-1.75 1.58606,-1.24387 1.62143,-1.2085 0.37756,0.37756 -1.30637,1.66575 -2.12756,2.19548 -2.12756,1.37244 z m -234.71983,-8.35871 c 2.6291,-0.20668 6.6791,-0.20418 9,0.006 2.32091,0.20972 0.16983,0.37882 -4.78017,0.37577 -4.95,-0.003 -6.84892,-0.17464 -4.21983,-0.38131 z m 16.96983,0.0469 c 0.9625,-0.25152 2.5375,-0.25152 3.5,0 0.9625,0.25153 0.175,0.45733 -1.75,0.45733 -1.925,0 -2.7125,-0.2058 -1.75,-0.45733 z m 236.25,-9.31063 c 5.47936,-5.5 10.18748,-10 10.46248,-10 0.275,0 -3.98312,4.5 -9.46248,10 -5.47936,5.5 -10.18748,10 -10.46248,10 -0.275,0 3.98312,-4.5 9.46248,-10 z m -272.75,8.33772 c 0.6875,-0.27741 1.8125,-0.27741 2.5,0 0.6875,0.27741 0.125,0.50439 -1.25,0.50439 -1.375,0 -1.9375,-0.22698 -1.25,-0.50439 z m -8.9375,-1.02083 c 0.72187,-0.28887 1.58438,-0.25335 1.91667,0.0789 0.33229,0.33229 -0.25834,0.56864 -1.3125,0.52522 -1.16495,-0.048 -1.4019,-0.28494 -0.60417,-0.60416 z m -124.94006,-2.06689 c -1.24387,-1.58606 -1.2085,-1.62143 0.37756,-0.37756 1.66575,1.30637 2.19548,2.12756 1.37244,2.12756 -0.20765,0 -0.99515,-0.7875 -1.75,-1.75 z m -7.46745,-6.5 -1.90499,-2.25 2.25,1.90499 c 2.11444,1.79022 2.70524,2.59501 1.90499,2.59501 -0.18976,0 -1.20226,-1.0125 -2.25,-2.25 z m 256.02378,-1.75 c 1.68848,-9.18447 3.81893,-18.08564 4.23025,-17.67431 0.26773,0.26772 0.006,2.21646 -0.58055,4.33054 -2.19032,7.8881 -0.84812,9.31193 4.33043,4.59377 2.68265,-2.44416 2.63297,-2.30514 -0.44671,1.25 -1.90578,2.2 -4.48384,5.35 -5.72903,7 -2.20624,2.92348 -2.25227,2.93623 -1.80439,0.5 z m -272.44852,-13.75 -9.48025,-9.75 9.75,9.48025 c 9.0557,8.80516 10.20489,10.01975 9.48025,10.01975 -0.14836,0 -4.53586,-4.3875 -9.75,-9.75 z m 445.51975,0.75 c 0.99549,-1.1 2.03498,-2 2.30998,-2 0.275,0 -0.31449,0.9 -1.30998,2 -0.99549,1.1 -2.03498,2 -2.30998,2 -0.275,0 0.31449,-0.9 1.30998,-2 z m -154.5,-7.37249 c 3.025,-3.19009 7.525,-7.13877 10,-8.77484 l 4.5,-2.97469 -4.49187,3.81101 c -2.47052,2.09606 -6.97052,6.04474 -10,8.77484 l -5.50813,4.96384 z m -13.9144,0.37249 c -0.0302,-0.825 0.38124,-2.175 0.9144,-3 1.18132,-1.82797 1.18132,-0.24909 0,2.5 -0.56668,1.31874 -0.87815,1.48906 -0.9144,0.5 z m 177.9144,-4.37756 c 0,-0.20765 0.7875,-0.99515 1.75,-1.75 1.58606,-1.24387 1.62143,-1.2085 0.37756,0.37756 -1.30637,1.66575 -2.12756,2.19548 -2.12756,1.37244 z m -175.98329,-0.90096 c -0.0306,-1.42611 6.18021,-13.13012 10.73068,-20.22148 11.91617,-18.56994 39.18894,-38.57025 68.25261,-50.05263 5.225,-2.06428 19.85,-7.30656 32.5,-11.64951 41.80096,-14.35097 58.92831,-22.09397 79.5,-35.94064 22.35666,-15.04813 42.43656,-33.9459 57.72242,-54.32421 10.33356,-13.77617 11.29602,-14.3783 2.45041,-1.53301 -6.49138,9.42654 -7.85894,10.98384 -24.01438,27.34619 -10.15537,10.28543 -17.73046,16.94671 -24.65845,21.68381 -5.5,3.76069 -11.00266,7.77577 -12.22814,8.92239 -4.52472,4.23361 -14.13515,9.17152 -44.77186,23.00412 -2.2,0.99331 -6.25,2.56115 -9,3.48409 -25.65059,8.60874 -53.27698,18.32406 -59,20.74843 -25.70134,10.88753 -46.66769,25.08319 -59.84172,40.51696 -5.10595,5.98178 -6.79329,8.60272 -13.06505,20.29401 -2.5079,4.675 -4.56733,8.14967 -4.57652,7.72148 z m -296.57962,-6.97148 -2.93709,-3.25 3.25,2.93709 c 3.02946,2.73778 3.70965,3.56291 2.93709,3.56291 -0.1721,0 -1.6346,-1.4625 -3.25,-3.25 z m 6.43535,-0.5 c -1.24387,-1.58606 -1.2085,-1.62143 0.37756,-0.37756 0.9625,0.75485 1.75,1.54235 1.75,1.75 0,0.82304 -0.82119,0.29331 -2.12756,-1.37244 z m 317.12756,0.21953 c 0,-1.90166 28.36379,-17.43908 29.59241,-16.21045 0.23703,0.23702 -2.53639,1.69209 -6.16316,3.23349 -3.62676,1.54139 -10.38201,5.18065 -15.01168,8.08725 -4.62966,2.90659 -8.41757,5.10696 -8.41757,4.88971 z m -322.12756,-4.21953 c -1.24387,-1.58606 -1.2085,-1.62143 0.37756,-0.37756 1.66575,1.30637 2.19548,2.12756 1.37244,2.12756 -0.20765,0 -0.99515,-0.7875 -1.75,-1.75 z m -8.46745,-3.5 -1.90499,-2.25 2.25,1.90499 c 1.2375,1.04774 2.25,2.06024 2.25,2.25 0,0.80025 -0.80479,0.20945 -2.59501,-1.90499 z m 3.46745,-0.5 c -1.24387,-1.58606 -1.2085,-1.62143 0.37756,-0.37756 1.66575,1.30637 2.19548,2.12756 1.37244,2.12756 -0.20765,0 -0.99515,-0.7875 -1.75,-1.75 z m 431.12756,-1.62756 c 0,-0.20765 0.7875,-0.99515 1.75,-1.75 1.58606,-1.24387 1.62143,-1.2085 0.37756,0.37756 -1.30637,1.66575 -2.12756,2.19548 -2.12756,1.37244 z m -435.51008,-1.63875 c -0.34546,-0.55897 -0.99603,-0.78893 -1.44571,-0.51101 -0.44968,0.27791 -1.34044,-0.12468 -1.97946,-0.89466 -2.10498,-2.53635 0.58553,-2.57919 2.9642,-0.0472 1.27582,1.35805 2.04279,2.46918 1.70438,2.46918 -0.33841,0 -0.89795,-0.45734 -1.24341,-1.01631 z m 442.51008,-4.36125 c 0,-0.20765 0.7875,-0.99515 1.75,-1.75 1.58606,-1.24387 1.62143,-1.2085 0.37756,0.37756 -1.30637,1.66575 -2.12756,2.19548 -2.12756,1.37244 z m -78.55478,-1.81179 c 2.44403,-1.41792 21.43741,-7.8326 22.94048,-7.74774 0.99033,0.0559 -23.14707,8.82808 -24.3857,8.86241 -0.275,0.008 0.37535,-0.49398 1.44522,-1.11467 z m 87.55478,-6.31065 c 1.29175,-1.375 2.57363,-2.5 2.84863,-2.5 0.275,0 -0.55688,1.125 -1.84863,2.5 -1.29175,1.375 -2.57363,2.5 -2.84863,2.5 -0.275,0 0.55688,-1.125 1.84863,-2.5 z m 67.59803,-3.25 c 1.00543,-1.5125 4.64577,-8.15 8.08964,-14.75 6.41018,-12.28476 7.87842,-14.31936 4.28675,-5.94032 -2.37896,5.54989 -12.77583,23.44032 -13.62214,23.44032 -0.32027,0 0.24032,-1.2375 1.24575,-2.75 z m -129.78553,1.06689 c 0.72187,-0.28887 1.58438,-0.25335 1.91667,0.0789 0.33229,0.33229 -0.25834,0.56864 -1.3125,0.52522 -1.16495,-0.048 -1.4019,-0.28494 -0.60417,-0.60416 z m 4,-1 c 0.72187,-0.28887 1.58438,-0.25335 1.91667,0.0789 0.33229,0.33229 -0.25834,0.56864 -1.3125,0.52522 -1.16495,-0.048 -1.4019,-0.28494 -0.60417,-0.60416 z m -284.94006,-2.06689 c -1.24387,-1.58606 -1.2085,-1.62143 0.37756,-0.37756 1.66575,1.30637 2.19548,2.12756 1.37244,2.12756 -0.20765,0 -0.99515,-0.7875 -1.75,-1.75 z m 288.94006,1.06689 c 0.72187,-0.28887 1.58438,-0.25335 1.91667,0.0789 0.33229,0.33229 -0.25834,0.56864 -1.3125,0.52522 -1.16495,-0.048 -1.4019,-0.28494 -0.60417,-0.60416 z m 7.6875,-1.88702 c 2.75,-0.76521 5.9,-1.3617 7,-1.32554 1.1,0.0362 -0.475,0.68342 -3.5,1.43835 -7.157,1.7861 -9.9955,1.69462 -3.5,-0.11281 z m 9.58333,-1.82315 c 0.78165,-0.73776 21.18671,-4.60702 23.80591,-4.51413 1.43592,0.0509 -2.78924,1.15686 -9.38924,2.45764 -11.88017,2.34144 -15.2239,2.81841 -14.41667,2.05649 z m -409.15902,-3.35672 -2.42431,-2.75 2.75,2.42431 c 2.57029,2.26589 3.20859,3.07569 2.42431,3.07569 -0.17912,0 -1.41662,-1.2375 -2.75,-2.75 z m 94,-2 -2.42431,-2.75 2.75,2.42431 c 2.57029,2.26589 3.20859,3.07569 2.42431,3.07569 -0.17912,0 -1.41662,-1.2375 -2.75,-2.75 z m 342.88819,0.0669 c 0.72187,-0.28887 1.58438,-0.25335 1.91667,0.0789 0.33229,0.33229 -0.25834,0.56864 -1.3125,0.52522 -1.16495,-0.048 -1.4019,-0.28494 -0.60417,-0.60416 z m 3.9375,-0.97917 c 0.6875,-0.27741 1.8125,-0.27741 2.5,0 0.6875,0.27741 0.125,0.50439 -1.25,0.50439 -1.375,0 -1.9375,-0.22698 -1.25,-0.50439 z m 5.0625,-1.02083 c 0.72187,-0.28887 1.58438,-0.25335 1.91667,0.0789 0.33229,0.33229 -0.25834,0.56864 -1.3125,0.52522 -1.16495,-0.048 -1.4019,-0.28494 -0.60417,-0.60416 z m 4.6875,-1.3169 c 1.1,-0.47269 2.675,-0.85943 3.5,-0.85943 0.94548,0 0.76064,0.31771 -0.5,0.85943 -1.1,0.47269 -2.675,0.85943 -3.5,0.85943 -0.94548,0 -0.76064,-0.31771 0.5,-0.85943 z m 13,-4.04596 c 2.75,-1.07383 5.45,-1.92763 6,-1.89735 1.50329,0.0828 -7.76597,3.83015 -9.5,3.84066 -0.825,0.005 0.75,-0.86948 3.5,-1.94331 z m -475.09501,-2.20404 -1.90499,-2.25 2.25,1.90499 c 2.11444,1.79022 2.70524,2.59501 1.90499,2.59501 -0.18976,0 -1.20226,-1.0125 -2.25,-2.25 z m 485.59501,-1.49128 c 1.925,-0.88735 7.6625,-3.53003 12.75,-5.87262 5.0875,-2.34259 9.25,-4.06927 9.25,-3.83707 0,0.63227 -10.66568,5.89264 -17.94421,8.85017 -7.05291,2.86586 -9.56166,3.39752 -4.05579,0.85952 z m -401.07569,-10.00872 -2.42431,-2.75 2.75,2.42431 c 2.57029,2.26589 3.20859,3.07569 2.42431,3.07569 -0.17912,0 -1.41662,-1.2375 -2.75,-2.75 z m 456.14656,1.25 c 0,-0.55 0.64311,-2.125 1.42913,-3.5 0.78602,-1.375 1.42913,-2.05 1.42913,-1.5 0,0.55 -0.64311,2.125 -1.42913,3.5 -0.78602,1.375 -1.42913,2.05 -1.42913,1.5 z m -30.07087,-2.83909 c 0,-0.26723 3.7125,-2.61205 8.25,-5.21071 4.5375,-2.59866 10.47947,-6.34389 13.20437,-8.32272 2.72491,-1.97882 4.62858,-3.07072 4.23039,-2.42643 -1.33043,2.15268 -25.68476,17.28585 -25.68476,15.95986 z m 33.03433,-3.66091 c -0.0146,-0.275 1.75959,-5 3.94258,-10.5 2.18298,-5.5 3.98121,-9.39996 3.99607,-8.66659 0.0438,2.1621 -7.83214,21.17732 -7.93865,19.16659 z m -466.16189,-2.75 c -1.24387,-1.58606 -1.2085,-1.62143 0.37756,-0.37756 0.9625,0.75485 1.75,1.54235 1.75,1.75 0,0.82304 -0.82119,0.29331 -2.12756,-1.37244 z m 462.12756,-12.64721 c 2.5523,-2.84284 11.2701,-9.60279 12.38398,-9.60279 0.33881,0 0.58439,1.0125 0.54573,2.25 -0.059,1.88783 -0.1825,1.9663 -0.76748,0.48747 -0.59785,-1.51138 -1.69214,-0.94944 -7.67971,3.94368 -3.84039,3.13842 -5.85752,4.45315 -4.48252,2.92164 z m 5.31472,-88.85279 c -0.061,-1.2375 0.10669,-1.6847 0.37261,-0.99377 0.26592,0.69093 1.00756,0.94205 1.64808,0.55804 0.64052,-0.384 0.54699,0.0632 -0.20785,0.99377 -1.7218,2.12264 -1.68009,2.13548 -1.81284,-0.55804 z m 94.22999,-2.75 c 0.27179,-3.025 1.20663,-12.925 2.07741,-22 2.68985,-28.03272 0.63832,-80.30602 -4.09282,-104.28577 -4.52086,-22.91395 -7.86036,-35.86845 -15.11507,-58.63381 -0.77462,-2.43077 -1.21845,-4.60953 -0.9863,-4.84168 0.53758,-0.53758 8.8062,25.62294 11.54888,36.53868 7.91984,31.52065 12.83835,76.78266 11.48861,105.72258 -0.68944,14.78222 -3.35924,43.59115 -4.54097,49 -0.77822,3.562 -0.81981,3.39774 -0.37974,-1.5 z m -90.54471,-0.37756 c 0,-0.20765 0.7875,-0.99515 1.75,-1.75 1.58606,-1.24387 1.62143,-1.2085 0.37756,0.37756 -1.30637,1.66575 -2.12756,2.19548 -2.12756,1.37244 z m -2.92105,-3.20577 c 0.048,-1.16495 0.28494,-1.4019 0.60416,-0.60417 0.28887,0.72187 0.25335,1.58438 -0.0789,1.91667 -0.33229,0.33229 -0.56864,-0.25834 -0.52522,-1.3125 z m 27.5766,-11.16667 c 3.03604,-4.8125 6.86002,-11.38304 8.49774,-14.60119 1.63771,-3.21816 3.16743,-5.66142 3.39937,-5.42949 1.18838,1.18839 -15.23324,28.78068 -17.12889,28.78068 -0.15857,0 2.19573,-3.9375 5.23178,-8.75 z m -24.49766,-7.25 c 0,-1.375 0.22698,-1.9375 0.50439,-1.25 0.27741,0.6875 0.27741,1.8125 0,2.5 -0.27741,0.6875 -0.50439,0.125 -0.50439,-1.25 z m 0.92106,-7.58333 c 0.048,-1.16495 0.28494,-1.4019 0.60416,-0.60417 0.28887,0.72187 0.25335,1.58438 -0.0789,1.91667 -0.33229,0.33229 -0.56864,-0.25834 -0.52522,-1.3125 z m 1.116,-9.91667 c 0.0204,-1.65 0.2445,-2.20394 0.49804,-1.23097 0.25354,0.97297 0.23687,2.32297 -0.0371,3 -0.27393,0.67703 -0.48137,-0.11903 -0.46099,-1.76903 z m 37.87592,-3.00003 c 0,-0.55 0.64311,-2.125 1.42913,-3.5 0.78602,-1.375 1.42913,-2.05 1.42913,-1.5 0,0.55 -0.64311,2.125 -1.42913,3.5 -0.78602,1.375 -1.42913,2.05 -1.42913,1.5 z m -667.91298,-6.5 c 0,-1.375 0.22698,-1.9375 0.50439,-1.25 0.27741,0.6875 0.27741,1.8125 0,2.5 -0.27741,0.6875 -0.50439,0.125 -0.50439,-1.25 z m 88.92106,0.41667 c 0.048,-1.16495 0.28494,-1.4019 0.60416,-0.60417 0.28887,0.72187 0.25335,1.58438 -0.0789,1.91667 -0.3323,0.33229 -0.56864,-0.25834 -0.52522,-1.3125 z m 542.17323,-3.91667 c 0.0111,-2.2 0.21589,-2.98225 0.45508,-1.73834 0.23919,1.24391 0.23011,3.04391 -0.0202,4 -0.25029,0.95609 -0.446,-0.0617 -0.4349,-2.26166 z m 39.79438,3.45819 c -0.0256,-0.298 1.69199,-4.79832 3.81689,-10.00071 4.20813,-10.30279 8.02534,-22.24021 11.05341,-34.56688 1.06608,-4.33983 1.97091,-7.01827 2.01074,-5.95209 0.097,2.59639 -6.28957,26.41587 -9.27096,34.57726 -2.22221,6.08319 -7.50609,17.15244 -7.61008,15.94242 z M 201.77797,522.33395 c 0.0204,-1.65 0.2445,-2.20394 0.49804,-1.23097 0.25354,0.97297 0.23687,2.32297 -0.0371,3 -0.27393,0.67703 -0.48137,-0.11903 -0.46099,-1.76903 z m -88.96295,-1.5 c 0,-1.925 0.2058,-2.7125 0.45733,-1.75 0.25152,0.9625 0.25152,2.5375 0,3.5 -0.25153,0.9625 -0.45733,0.175 -0.45733,-1.75 z m 632.05401,-15.5 c 0.008,-2.75 0.20172,-3.75631 0.43157,-2.23625 0.22986,1.52006 0.22371,3.77006 -0.0136,5 -0.23736,1.22994 -0.42542,-0.0138 -0.41792,-2.76375 z m -543.09106,-14 c 0.0204,-1.65 0.2445,-2.20394 0.49804,-1.23097 0.25354,0.97297 0.23687,2.32297 -0.0371,3 -0.27393,0.67703 -0.48137,-0.11903 -0.46099,-1.76903 z m 542,-2 c 0.0204,-1.65 0.2445,-2.20394 0.49804,-1.23097 0.25354,0.97297 0.23687,2.32297 -0.0371,3 -0.27393,0.67703 -0.48137,-0.11903 -0.46099,-1.76903 z m -631,-6 c 0.0204,-1.65 0.2445,-2.20394 0.49804,-1.23097 0.25354,0.97297 0.23687,2.32297 -0.037,3 -0.27393,0.67703 -0.48137,-0.11903 -0.46099,-1.76903 z m 629.884,-3.08333 c 0.048,-1.16495 0.28494,-1.4019 0.60416,-0.60417 0.28887,0.72187 0.25335,1.58438 -0.0789,1.91667 -0.33229,0.33229 -0.56864,-0.25834 -0.52522,-1.3125 z m 59.07894,-1.41667 c 0,-1.375 0.22698,-1.9375 0.50439,-1.25 0.27741,0.6875 0.27741,1.8125 0,2.5 -0.27741,0.6875 -0.50439,0.125 -0.50439,-1.25 z m 1.52089,-7.5 c 0.31761,-2.75 0.74482,-5.1875 0.94935,-5.41667 0.70278,-0.78744 0.17197,5.41827 -0.67716,7.91667 -0.57301,1.68596 -0.66164,0.87192 -0.27219,-2.5 z m -61.59983,0.91667 c 0.048,-1.16495 0.28494,-1.4019 0.60416,-0.60417 0.28887,0.72187 0.25335,1.58438 -0.0789,1.91667 -0.33229,0.33229 -0.56864,-0.25834 -0.52522,-1.3125 z m 49,0 c 0.048,-1.16495 0.28494,-1.4019 0.60416,-0.60417 0.28887,0.72187 0.25335,1.58438 -0.0789,1.91667 -0.33229,0.33229 -0.56864,-0.25834 -0.52522,-1.3125 z m 14.63875,-14.91667 c 0.30343,-4.4 0.71608,-8.1875 0.91699,-8.41667 0.69817,-0.79632 0.24489,8.4407 -0.60931,12.41667 -0.61715,2.87258 -0.70387,1.74517 -0.30768,-4 z m -690.63875,4.91667 c 0.048,-1.16495 0.28494,-1.4019 0.60416,-0.60417 0.28887,0.72187 0.25335,1.58438 -0.0789,1.91667 -0.3323,0.33229 -0.56864,-0.25834 -0.52522,-1.3125 z m 678.07894,-2.41667 c 0,-1.375 0.22698,-1.9375 0.50439,-1.25 0.27741,0.6875 0.27741,1.8125 0,2.5 -0.27741,0.6875 -0.50439,0.125 -0.50439,-1.25 z m -587.07894,-2.58333 c 0.048,-1.16495 0.28494,-1.4019 0.60416,-0.60417 0.28887,0.72187 0.25335,1.58438 -0.0789,1.91667 -0.3323,0.33229 -0.56864,-0.25834 -0.52522,-1.3125 z m 588.116,-5.91667 c 0.0204,-1.65 0.2445,-2.20394 0.49804,-1.23097 0.25354,0.97297 0.23687,2.32297 -0.0371,3 -0.27393,0.67703 -0.48137,-0.11903 -0.46099,-1.76903 z m 13.22684,-24.5 c 0,-11.275 0.14584,-15.8875 0.32409,-10.25 0.17825,5.6375 0.17825,14.8625 0,20.5 -0.17825,5.6375 -0.32409,1.025 -0.32409,-10.25 z m -12.12213,11 c 0,-3.025 0.18747,-4.2625 0.41659,-2.75 0.22913,1.5125 0.22913,3.9875 0,5.5 -0.22912,1.5125 -0.41659,0.275 -0.41659,-2.75 z m -0.0137,-25.49996 c 0.008,-2.75 0.20172,-3.75631 0.43157,-2.23625 0.22986,1.52006 0.22371,3.77006 -0.0136,5 -0.23736,1.22994 -0.42542,-0.0138 -0.41792,-2.76375 z m 10.30502,-16.75 c -0.38276,-5.0875 -1.82315,-15.03668 -3.20086,-22.10929 -1.37771,-7.07261 -2.30632,-13.0579 -2.06357,-13.30064 0.45043,-0.45044 13.71153,30.15372 13.62684,31.44823 -0.0256,0.39143 -1.15924,-1.4258 -2.51917,-4.0383 -1.35993,-2.6125 -3.14697,-4.75 -3.97119,-4.75 -1.28111,0 -1.40163,1.5963 -0.83049,11 0.36745,6.05 0.44001,11 0.16123,11 -0.27877,0 -0.82003,-4.1625 -1.20279,-9.25 z m -11.43314,4.25 c 0,-1.375 0.22698,-1.9375 0.50439,-1.25 0.27741,0.6875 0.27741,1.8125 0,2.5 -0.27741,0.6875 -0.50439,0.125 -0.50439,-1.25 z m -1,-8 c 0,-1.375 0.22698,-1.9375 0.50439,-1.25 0.27741,0.6875 0.27741,1.8125 0,2.5 -0.27741,0.6875 -0.50439,0.125 -0.50439,-1.25 z m -1.07894,-7.58333 c 0.048,-1.16495 0.28494,-1.4019 0.60416,-0.60417 0.28887,0.72187 0.25335,1.58438 -0.0789,1.91667 -0.33229,0.33229 -0.56864,-0.25834 -0.52522,-1.3125 z M 683.45546,342.08395 c -1.24387,-1.58606 -1.2085,-1.62143 0.37756,-0.37756 1.66575,1.30637 2.19548,2.12756 1.37244,2.12756 -0.20765,0 -0.99515,-0.7875 -1.75,-1.75 z m -5.94813,-7 -2.42431,-2.75 2.75,2.42431 c 1.5125,1.33338 2.75,2.57088 2.75,2.75 0,0.78428 -0.8098,0.14598 -3.07569,-2.42431 z m -410.42431,-2.25 c 0.99549,-1.1 2.03498,-2 2.30998,-2 0.275,0 -0.31449,0.9 -1.30998,2 -0.99549,1.1 -2.03498,2 -2.30998,2 -0.275,0 0.31449,-0.9 1.30998,-2 z m 397.96241,-10.25 -4.96241,-5.25 5.25,4.96241 c 4.87839,4.61116 5.7086,5.53759 4.96241,5.53759 -0.15818,0 -2.52068,-2.3625 -5.25,-5.25 z m -10.58997,-9.5 c -1.24387,-1.58606 -1.2085,-1.62143 0.37756,-0.37756 0.9625,0.75485 1.75,1.54235 1.75,1.75 0,0.82304 -0.82119,0.29331 -2.12756,-1.37244 z m -6,-5 c -1.24387,-1.58606 -1.2085,-1.62143 0.37756,-0.37756 0.9625,0.75485 1.75,1.54235 1.75,1.75 0,0.82304 -0.82119,0.29331 -2.12756,-1.37244 z m -354.87244,-0.62756 c 0,-0.20765 0.7875,-0.99515 1.75,-1.75 1.58606,-1.24387 1.62143,-1.2085 0.37756,0.37756 -1.30637,1.66575 -2.12756,2.19548 -2.12756,1.37244 z m -104,-16 c 0,-0.20765 0.7875,-0.99515 1.75,-1.75 1.58606,-1.24387 1.62143,-1.2085 0.37756,0.37756 -1.30637,1.66575 -2.12756,2.19548 -2.12756,1.37244 z m 434.58984,-1.52316 c -1.37,-1.51384 -1.45243,-2.05534 -0.40498,-2.66033 0.72333,-0.41778 0.97666,-0.38647 0.56296,0.0696 -0.4137,0.45605 -0.006,1.6532 0.90499,2.66033 0.91144,1.00713 1.43217,1.83115 1.15717,1.83115 -0.275,0 -1.27406,-0.85533 -2.22014,-1.90072 z m 124.81515,-6.34928 -1.90499,-2.25 2.25,1.90499 c 2.11444,1.79022 2.70524,2.59501 1.90499,2.59501 -0.18976,0 -1.20226,-1.0125 -2.25,-2.25 z m -100.59249,-2.43311 c 0.72187,-0.28887 1.58438,-0.25335 1.91667,0.0789 0.33229,0.33229 -0.25834,0.56864 -1.3125,0.52522 -1.16495,-0.048 -1.4019,-0.28494 -0.60417,-0.60416 z m 85.16963,-14.06689 -10.48213,-10.75 10.75,10.48213 c 5.9125,5.76518 10.75,10.60268 10.75,10.75 0,0.72221 -1.28184,-0.4973 -11.01787,-10.48213 z m -522.98213,1.25 c 4.65071,-4.675 8.68084,-8.5 8.95584,-8.5 0.275,0 -3.30513,3.825 -7.95584,8.5 -4.65071,4.675 -8.68084,8.5 -8.95584,8.5 -0.275,0 3.30513,-3.825 7.95584,-8.5 z m 460.8125,7.81689 c 0.72187,-0.28887 1.58438,-0.25335 1.91667,0.0789 0.33229,0.33229 -0.25834,0.56864 -1.3125,0.52522 -1.16495,-0.048 -1.4019,-0.28494 -0.60417,-0.60416 z m 45.11181,-25.06689 -2.42431,-2.75 2.75,2.42431 c 1.5125,1.33338 2.75,2.57088 2.75,2.75 0,0.78428 -0.8098,0.14598 -3.07569,-2.42431 z m -488.92431,1.37244 c 0,-0.20765 0.7875,-0.99515 1.75,-1.75 1.58606,-1.24387 1.62143,-1.2085 0.37756,0.37756 -1.30637,1.66575 -2.12756,2.19548 -2.12756,1.37244 z m 7,-6 c 0,-0.20765 0.7875,-0.99515 1.75,-1.75 1.58606,-1.24387 1.62143,-1.2085 0.37756,0.37756 -1.30637,1.66575 -2.12756,2.19548 -2.12756,1.37244 z m 473.87244,-2.37244 c -1.24387,-1.58606 -1.2085,-1.62143 0.37756,-0.37756 1.66575,1.30637 2.19548,2.12756 1.37244,2.12756 -0.20765,0 -0.99515,-0.7875 -1.75,-1.75 z m -269.05994,-1.93311 c 0.72187,-0.28887 1.58438,-0.25335 1.91667,0.0789 0.33229,0.33229 -0.25834,0.56864 -1.3125,0.52522 -1.16495,-0.048 -1.4019,-0.28494 -0.60417,-0.60416 z m 8.9375,-0.97917 c 0.6875,-0.27741 1.8125,-0.27741 2.5,0 0.6875,0.27741 0.125,0.50439 -1.25,0.50439 -1.375,0 -1.9375,-0.22698 -1.25,-0.50439 z m 53,0 c 0.6875,-0.27741 1.8125,-0.27741 2.5,0 0.6875,0.27741 0.125,0.50439 -1.25,0.50439 -1.375,0 -1.9375,-0.22698 -1.25,-0.50439 z m -38,-1.06112 c 1.7875,-0.22182 4.7125,-0.22182 6.5,0 1.7875,0.22183 0.325,0.40333 -3.25,0.40333 -3.575,0 -5.0375,-0.1815 -3.25,-0.40333 z m 16.9777,0.002 c 1.77523,-0.22091 4.92523,-0.22454 7,-0.008 2.07476,0.21648 0.6223,0.39722 -3.2277,0.40166 -3.85,0.004 -5.54754,-0.17268 -3.7723,-0.39359 z m 177.2723,-30.2786 c 0,-0.55 0.47656,-1 1.05902,-1 0.58246,0 0.7809,0.45 0.44098,1 -0.33992,0.55 -0.81648,1 -1.05902,1 -0.24254,0 -0.44098,-0.45 -0.44098,-1 z m -246.1875,-42.68311 c 0.72187,-0.28887 1.58438,-0.25335 1.91667,0.0789 0.33229,0.33229 -0.25834,0.56864 -1.3125,0.52522 -1.16495,-0.048 -1.4019,-0.28494 -0.60417,-0.60416 z m 15.9375,-1.97917 c 0.6875,-0.27741 1.8125,-0.27741 2.5,0 0.6875,0.27741 0.125,0.50439 -1.25,0.50439 -1.375,0 -1.9375,-0.22698 -1.25,-0.50439 z m 75.0625,-0.0208 c 0.72187,-0.28887 1.58438,-0.25335 1.91667,0.0789 0.33229,0.33229 -0.25834,0.56864 -1.3125,0.52522 -1.16495,-0.048 -1.4019,-0.28494 -0.60417,-0.60416 z m -62.54347,-1.00988 c 0.97297,-0.25354 2.32297,-0.23687 3,0.0371 0.67703,0.27393 -0.11903,0.48137 -1.76903,0.46099 -1.65,-0.0204 -2.20394,-0.2445 -1.23097,-0.49804 z m 50,0 c 0.97297,-0.25354 2.32297,-0.23687 3,0.0371 0.67703,0.27393 -0.11903,0.48137 -1.76903,0.46099 -1.65,-0.0204 -2.20394,-0.2445 -1.23097,-0.49804 z"
         id="path13"
         sodipodi:nodetypes="sssssssssssssssssssssssssssssssssssssssssssssssssssssssssssssssssssssssscssssssssssssssssssssssssssssssssccsccssssssssssssssssssssssscssssscssssscsssssssssscsscsssssssssssssssssssssssssscssssssssssssssssscssssssssssssssssssssssscssssssssssssssssssssssssssssssssssssssscsssscssssssssssssssssssssssssssscssssssssscssssssssssssssssssssssssssssssssssssssssssssssssssssssssssssssssssssssssssssssssssssssssssssssssssssssssssssssssssssssssssssssssssssssssssssssssssssssssssssssssssssssssssssssssssssssssssssssssssssssssssssssssscssssssssscsssssssssssssssssssssscsssscssssssssscsssssssssssssscsssssssssssssssssssssssssssssssssscsssssssssssssssssssssssssssssss" />
      <path
         style="fill:#fb9a51"
         d="m 579.60802,863.8494 c -1.22227,-0.7554 3.32202,-3.87104 9.34293,-6.40567 1.72264,-0.72518 5.35961,-3.0248 8.08216,-5.11027 2.72255,-2.08547 10.17691,-7.28317 16.56525,-11.55044 6.38834,-4.26727 14.0608,-9.9629 17.04991,-12.65696 2.98911,-2.69405 9.79611,-8.37836 15.12666,-12.63181 5.33056,-4.25344 10.88741,-9.17955 12.34856,-10.94691 1.46115,-1.76737 7.92366,-8.61339 14.36114,-15.21339 6.43747,-6.6 12.54628,-13.35 13.57513,-15 1.02885,-1.65 5.28158,-7.275 9.45051,-12.5 8.38587,-10.51016 11.79562,-15.68973 24.35742,-37 11.79641,-20.01185 27.67814,-57.37052 25.3702,-59.67846 -0.56159,-0.56159 -3.65711,1.69124 -16.15487,11.75705 -5.34031,4.30114 -24.0911,15.70706 -34.0218,20.69513 -14.24081,7.15299 -36.69564,14.99696 -50.4782,17.63316 -39.63167,7.58039 -52.849,10.56049 -67.36021,15.18767 -28.31225,9.02792 -49.24554,21.58524 -65.68849,39.4048 -10.35855,11.22576 -12.58145,12.34283 -11.53464,5.79646 1.87043,-11.69704 11.63225,-31.70947 20.69688,-42.4301 13.46821,-15.92868 34.27065,-30.11357 60.38646,-41.17668 5.72302,-2.42437 33.34941,-12.13969 59,-20.74843 2.75,-0.92294 6.8,-2.49078 9,-3.48409 30.63671,-13.8326 40.24714,-18.77051 44.77186,-23.00412 1.22548,-1.14662 6.72814,-5.1617 12.22814,-8.92239 6.92799,-4.7371 14.50308,-11.39838 24.65845,-21.68381 17.4257,-17.64887 17.45837,-17.68752 27.34005,-32.34619 4.26381,-6.325 8.58345,-12.41573 9.59922,-13.53495 3.40853,-3.75569 21.97468,-42.62034 25.7798,-53.96505 4.36298,-13.00793 8.58488,-31.11794 12.23906,-52.5 1.4537,-8.50617 1.83033,-49.95137 0.61567,-67.75 -0.66043,-9.67736 -0.55794,-11.25 0.73315,-11.25 1.95162,0 5.76899,7.60926 8.54111,17.02522 1.21034,4.11113 3.5365,11.74408 5.16925,16.96211 2.74633,8.77689 5.84258,21.9271 9.3538,39.7269 2.59921,13.17646 4.51077,35.49865 5.14365,60.06489 1.46044,56.68917 -6.85675,102.51054 -27.6301,152.22088 -5.41479,12.95749 -23.175,45.65606 -26.07119,48 -0.33979,0.275 -0.86911,1.175 -1.17627,2 -1.96335,5.27336 -26.056,35.73435 -38.90639,49.1904 -30.24512,31.67063 -68.73301,59.05198 -108.27041,77.02656 -14.58093,6.62881 -16.22098,7.28108 -32.61885,12.97289 -16.84551,5.84719 -19.67053,6.63181 -20.975,5.8256 z m -170.2125,-41.69856 c 0.72187,-0.28887 1.58438,-0.25335 1.91667,0.0789 0.33229,0.33229 -0.25834,0.56864 -1.3125,0.52522 -1.16495,-0.048 -1.4019,-0.28494 -0.60417,-0.60416 z M 794.66197,431.25062 c 0.048,-1.16495 0.28494,-1.4019 0.60416,-0.60417 0.28887,0.72187 0.25335,1.58438 -0.0789,1.91667 -0.33229,0.33229 -0.56864,-0.25834 -0.52522,-1.3125 z"
         id="path12"
         sodipodi:nodetypes="ssssssssssssssssssssssssssssssssssssssssssssssssssss" />
      <path
         style="fill:#ae5216"
         d="m 459.58302,877.20979 c -12.64489,-0.74916 -33.69087,-3.5454 -48.72358,-6.47359 -32.11918,-6.25641 -59.66679,-15.5801 -89.77642,-30.38546 -44.09266,-21.68103 -78.94175,-48.46596 -114.56622,-88.05534 -12.98547,-14.43073 -12.874,-15.11544 0.6932,-4.258 50.69035,40.56607 111.57861,65.58492 177.37302,72.88218 14.39455,1.5965 53.17799,1.62702 65.5,0.0515 73.83647,-9.44066 143.77852,-40.62493 197.21019,-87.92788 6.46026,-5.71926 8.17642,-6.67391 16.5,-9.17853 17.35001,-5.22074 38.42676,-14.35758 50.05927,-21.70086 2.15573,-1.36085 4.07905,-2.31472 4.27406,-2.11971 0.91164,0.91164 -11.6879,23.75156 -20.10132,36.43881 -32.78384,49.43733 -81.81232,92.96845 -134.39886,119.32927 -22.73659,11.39751 -40.27285,17.77122 -55.04334,20.00601 -7.88903,1.19362 -37.93746,2.04697 -49,1.39156 z m 37.31822,-3.42974 c 19.90111,-1.50612 29.56342,-4.13986 54.54103,-14.86673 32.47235,-13.94557 73.04064,-42.82789 103.93197,-73.99367 13.79328,-13.91583 34.17024,-38.98945 41.51658,-51.0857 6.35069,-10.45684 13.6922,-23.76166 13.6922,-24.814 0,-0.58094 -3.7125,0.67213 -8.25,2.78462 -11.0708,5.15413 -35.33301,14.48997 -41.50454,15.97049 -3.98734,0.95655 -6.82637,2.82144 -14.27436,9.37646 -19.60679,17.25606 -40.14486,31.31714 -66.4711,45.50845 -33.80863,18.22473 -80.65814,33.96534 -118,39.64592 -25.26494,3.84339 -60.66687,4.05154 -84.5,0.49683 -20.08922,-2.99631 -27.98858,-4.51884 -42,-8.09513 -19.69088,-5.02593 -28.03961,-7.68248 -40.5,-12.88702 -5.5,-2.29728 -12.63695,-5.245 -15.85989,-6.5505 -3.22294,-1.3055 -6.37294,-2.78262 -7,-3.28249 -0.62706,-0.49987 -2.2383,-1.24645 -3.58053,-1.65907 -1.34224,-0.41261 -6.74224,-3.31336 -12,-6.4461 -5.25777,-3.13274 -12.70958,-7.41814 -16.55958,-9.52311 -3.85,-2.10497 -9.39312,-5.37868 -12.31805,-7.27491 -2.92492,-1.89622 -5.51103,-3.25469 -5.7469,-3.01882 -0.23588,0.23587 5.53224,6.24781 12.81804,13.35987 34.27548,33.45811 82.01926,62.33496 129.41902,78.27644 43.68704,14.69282 91.41944,21.19821 132.64611,18.07817 z m -81.50572,-75.62921 c 0.72187,-0.28887 1.58438,-0.25335 1.91667,0.0789 0.33229,0.33229 -0.25834,0.56864 -1.3125,0.52522 -1.16495,-0.048 -1.4019,-0.28494 -0.60417,-0.60416 z m -29.0625,-0.97917 c 0.6875,-0.27741 1.8125,-0.27741 2.5,0 0.6875,0.27741 0.125,0.50439 -1.25,0.50439 -1.375,0 -1.9375,-0.22698 -1.25,-0.50439 z m 50.25,0.27886 c 0,-0.21089 1.125,-0.59848 2.5,-0.86133 1.375,-0.26285 2.5,-0.0903 2.5,0.38342 0,0.47373 -1.125,0.86133 -2.5,0.86133 -1.375,0 -2.5,-0.17254 -2.5,-0.38342 z m -238.05383,-85.36658 -3.44617,-3.75 3.75,3.44617 c 2.0625,1.89539 3.75,3.58289 3.75,3.75 0,0.76362 -0.84622,0.0442 -4.05383,-3.44617 z M 739.61741,577.8297 c 4.3532,-22.86224 5.41012,-34.8389 5.38276,-60.99575 -0.0288,-27.51923 -1.35101,-41.44109 -5.97439,-62.90468 -3.64767,-16.93394 -6.04381,-24.99388 -11.92292,-40.10521 -18.42471,-47.35782 -46.37606,-82.69546 -92.27221,-116.65563 -6.31801,-4.67492 -11.09375,-8.87385 -10.61602,-9.33383 0.47762,-0.45986 12.34339,-3.35367 26.36839,-6.43068 40.76427,-8.94347 42,-9.25982 42,-10.75207 0,-0.60776 -6.68503,-12.40292 -14.85562,-26.21146 -14.34639,-24.24584 -19.14438,-32.81046 -19.14438,-34.17359 0,-1.23147 3.23517,0.61022 15.34044,8.73285 36.69587,24.62293 68.31232,53.52161 83.65132,76.46061 47.92436,71.66941 49.91136,176.27937 4.85723,255.71931 -5.69643,10.04399 -17.05965,27.15552 -21.68192,32.65013 l -2.94076,3.49575 z m 8.31608,-8.24575 c 13.97865,-21.771 18.92004,-31.26748 27.65107,-53.14045 4.7073,-11.79272 6.93384,-19.41087 11.43045,-39.10955 4.16996,-18.26768 6.41567,-52.33661 4.61416,-70 -1.72022,-16.86642 -4.75332,-36.1525 -7.05622,-44.8674 -5.04228,-19.08149 -16.86296,-46.45126 -26.65037,-61.70665 -15.82946,-24.67298 -48.84055,-55.81553 -80.1092,-75.57474 -7.14594,-4.51564 -9.82004,-5.7575 -10.06801,-4.6756 -0.18571,0.81026 0.32682,2.22722 1.13895,3.14879 0.81213,0.92158 3.09257,4.90898 5.06764,8.86089 1.97507,3.95191 5.28754,9.8643 7.36105,13.13865 7.97902,12.59994 13.78683,24.53082 12.75445,26.20124 -1.72847,2.79671 -14.01149,6.62533 -30.02691,9.35937 -8.82484,1.50652 -33.39873,7.22332 -34.11087,7.93546 -0.5336,0.5336 8.29776,7.76598 15.3118,12.53948 12.67448,8.62579 36.94126,32.30918 47.0332,45.90247 1.52636,2.05592 4.43515,5.76304 6.46399,8.23804 7.28107,8.88227 22.55299,35.76219 28.00551,49.29216 4.54124,11.26873 11.04127,31.68233 12.96205,40.70784 7.38318,34.69268 8.2318,43.30055 7.58431,76.93102 -0.29193,15.16294 -1.05465,30.71898 -1.69494,34.56898 -2.24837,13.51918 -2.67043,17.5 -1.85542,17.5 0.45233,0 2.33932,-2.3625 4.19331,-5.25 z M 114.66197,540.25062 c 0.048,-1.16495 0.28494,-1.4019 0.60416,-0.60417 0.28887,0.72187 0.25335,1.58438 -0.0789,1.91667 -0.3323,0.33229 -0.56864,-0.25834 -0.52522,-1.3125 z m -1,-10 c 0.048,-1.16495 0.28494,-1.4019 0.60416,-0.60417 0.28887,0.72187 0.25335,1.58438 -0.0789,1.91667 -0.3323,0.33229 -0.56864,-0.25834 -0.52522,-1.3125 z m 88,-4 c 0.048,-1.16495 0.28494,-1.4019 0.60416,-0.60417 0.28887,0.72187 0.25335,1.58438 -0.0789,1.91667 -0.3323,0.33229 -0.56864,-0.25834 -0.52522,-1.3125 z m -88.76908,-13.91667 c 0.006,-3.3 0.1923,-4.52944 0.41486,-2.73209 0.22256,1.79735 0.21797,4.49735 -0.0102,6 -0.22818,1.50265 -0.41027,0.0321 -0.40466,-3.26791 z m -0.0239,-22 c 0.008,-2.75 0.20172,-3.75631 0.43157,-2.23625 0.22986,1.52006 0.22371,3.77006 -0.0136,5 -0.23736,1.22994 -0.42542,-0.0138 -0.41792,-2.76375 z m 88.79294,-3.08333 c 0.048,-1.16495 0.28494,-1.4019 0.60416,-0.60417 0.28887,0.72187 0.25335,1.58438 -0.0789,1.91667 -0.3323,0.33229 -0.56864,-0.25834 -0.52522,-1.3125 z m 1,-12 c 0.048,-1.16495 0.28494,-1.4019 0.60416,-0.60417 0.28887,0.72187 0.25335,1.58438 -0.0789,1.91667 -0.3323,0.33229 -0.56864,-0.25834 -0.52522,-1.3125 z m -89,-2 c 0.048,-1.16495 0.28494,-1.4019 0.60416,-0.60417 0.28887,0.72187 0.25335,1.58438 -0.0789,1.91667 -0.3323,0.33229 -0.56864,-0.25834 -0.52522,-1.3125 z M 279.58302,319.33395 c 1.29175,-1.375 2.57363,-2.5 2.84863,-2.5 0.275,0 -0.55688,1.125 -1.84863,2.5 -1.29175,1.375 -2.57363,2.5 -2.84863,2.5 -0.275,0 0.55688,-1.125 1.84863,-2.5 z m -83,-35.87756 c 0,-0.20765 0.7875,-0.99515 1.75,-1.75 1.58606,-1.24387 1.62143,-1.2085 0.37756,0.37756 -1.30637,1.66575 -2.12756,2.19548 -2.12756,1.37244 z m 28,-28 c 0,-0.20765 0.7875,-0.99515 1.75,-1.75 1.58606,-1.24387 1.62143,-1.2085 0.37756,0.37756 -1.30637,1.66575 -2.12756,2.19548 -2.12756,1.37244 z m 232.26903,-15.31543 c 0.97297,-0.25354 2.32297,-0.23687 3,0.0371 0.67703,0.27393 -0.11903,0.48137 -1.76903,0.46099 -1.65,-0.0204 -2.20394,-0.2445 -1.23097,-0.49804 z m 34.48097,0.0307 c 0.6875,-0.27741 1.8125,-0.27741 2.5,0 0.6875,0.27741 0.125,0.50439 -1.25,0.50439 -1.375,0 -1.9375,-0.22698 -1.25,-0.50439 z m 8.0625,-75.02083 c 0.72187,-0.28887 1.58438,-0.25335 1.91667,0.0789 0.33229,0.33229 -0.25834,0.56864 -1.3125,0.52522 -1.16495,-0.048 -1.4019,-0.28494 -0.60417,-0.60416 z m -55.0625,-0.97916 c 0.6875,-0.27741 1.8125,-0.27741 2.5,0 0.6875,0.27741 0.125,0.50439 -1.25,0.50439 -1.375,0 -1.9375,-0.22698 -1.25,-0.50439 z m 41,0 c 0.6875,-0.27741 1.8125,-0.27741 2.5,0 0.6875,0.27741 0.125,0.50439 -1.25,0.50439 -1.375,0 -1.9375,-0.22698 -1.25,-0.50439 z"
         id="path11"
         sodipodi:nodetypes="sssssscssssssssssssssssssssssssssssssssssssssssssssssscssssssssssssssssscssssssssssssssssssssssssssssssssssssssscsscsssssssssssssssssssssssssssssssssssssssssssssssssssssss" />
      <path
         style="fill:#c44d03"
         d="m 459.58302,874.15629 c -17.81124,-0.66559 -50.25326,-5.70489 -69.75443,-10.83514 -47.30825,-12.44557 -86.55736,-31.51024 -126.24557,-61.32192 -13.74228,-10.32247 -42.72525,-36.77337 -41.56495,-37.93366 0.23587,-0.23587 2.82198,1.1226 5.7469,3.01882 2.92493,1.89623 8.46805,5.16994 12.31805,7.27491 3.85,2.10497 11.30181,6.39037 16.55958,9.52311 5.25776,3.13274 10.65776,6.03349 12,6.4461 1.34223,0.41262 2.95347,1.1592 3.58053,1.65907 0.62706,0.49987 3.77706,1.97699 7,3.28249 3.22294,1.3055 10.35989,4.25322 15.85989,6.5505 24.96055,10.42569 65.29936,19.93194 95.5,22.50553 22.13013,1.88586 51.22745,1.06372 71.5,-2.02021 37.34186,-5.68058 84.19137,-21.42119 118,-39.64592 26.32624,-14.19131 46.86431,-28.25239 66.4711,-45.50845 7.44799,-6.55502 10.28702,-8.41991 14.27436,-9.37646 6.17153,-1.48052 30.43374,-10.81636 41.50454,-15.97049 4.5375,-2.11249 8.25,-3.36556 8.25,-2.78462 0,1.05234 -7.34151,14.35716 -13.6922,24.814 -7.34634,12.09625 -27.7233,37.16987 -41.51658,51.0857 -30.89133,31.16578 -71.45962,60.0481 -103.93197,73.99367 -24.97761,10.72687 -34.63992,13.36061 -54.54103,14.86673 -13.01596,0.98505 -19.32434,1.04865 -37.31822,0.37624 z M 743.6746,569.58395 c 0.41626,-2.8875 1.2807,-8.4 1.921,-12.25 0.64029,-3.85 1.40301,-19.40604 1.69494,-34.56898 0.64749,-33.63047 -0.20113,-42.23834 -7.58431,-76.93102 -1.92078,-9.02551 -8.42081,-29.43911 -12.96205,-40.70784 -5.45252,-13.52997 -20.72444,-40.40989 -28.00551,-49.29216 -2.02884,-2.475 -4.93763,-6.18212 -6.46399,-8.23804 -10.09194,-13.59329 -34.35872,-37.27668 -47.0332,-45.90247 -7.01404,-4.7735 -15.8454,-12.00588 -15.3118,-12.53948 0.71214,-0.71214 25.28603,-6.42894 34.11087,-7.93546 16.01542,-2.73404 28.29844,-6.56266 30.02691,-9.35937 1.03238,-1.67042 -4.77543,-13.6013 -12.75445,-26.20124 -2.07351,-3.27435 -5.38598,-9.18674 -7.36105,-13.13865 -1.97507,-3.95191 -4.25551,-7.93931 -5.06764,-8.86089 -0.81213,-0.92157 -1.32466,-2.33853 -1.13895,-3.14879 0.24797,-1.0819 2.92207,0.15996 10.06801,4.6756 31.26865,19.75921 64.27974,50.90176 80.1092,75.57474 9.78741,15.25539 21.60809,42.62516 26.65037,61.70665 4.97805,18.83847 8.40316,50.86182 7.52624,70.3674 -1.83343,40.7816 -9.4112,71.22774 -26.50689,106.5 -5.96586,12.30891 -20.2412,35.5 -21.85212,35.5 -0.45232,0 -0.48183,-2.3625 -0.0656,-5.25 z"
         id="path10"
         sodipodi:nodetypes="ssssssssssssssssssssssssssssssssssssssssssssss" />
      <path
         style="fill:#020202"
         d="M 386.08302,797.15992 C 335.43066,792.88205 287.47971,776.73434 246.93214,750.3002 228.13681,738.04698 215.17344,727.5454 199.52326,711.89444 159.48614,671.85533 132.846,623.94349 120.5342,569.83395 c -9.21041,-40.47909 -9.86318,-85.67272 -1.83438,-127 12.99973,-66.9145 47.25138,-130.2423 96.01512,-177.52214 58.16638,-56.39635 127.40219,-89.25223 208.86808,-99.11841 17.91861,-2.17008 62.94551,-2.4836 79.5,-0.55354 16.86737,1.96653 33.64717,4.92891 48.3783,8.54092 l 13.37829,3.2803 10.62171,-21.75817 c 5.84193,-11.96699 10.8467,-21.7774 11.1217,-21.80091 0.275,-0.0235 3.05181,4.33906 6.17069,9.6946 3.11888,5.35554 19.43138,32.88776 36.25,61.18271 16.81862,28.29494 30.57812,51.69494 30.57668,52 -0.003,0.53351 -26.60936,6.75447 -49.49737,11.57302 -6.05,1.27369 -26.075,5.69405 -44.5,9.82302 -43.24786,9.69168 -57,12.56457 -57,11.90759 0,-0.29273 5.05766,-10.33585 11.23925,-22.31803 6.18158,-11.98219 11.01408,-22.01097 10.73887,-22.28617 -0.86072,-0.86072 -17.98348,-3.54171 -29.47812,-4.61552 -42.56713,-3.97654 -87.39865,2.54188 -128,18.61098 -39.03244,15.44816 -73.23824,38.66731 -101.70262,69.03648 -29.18469,31.1377 -50.98307,70.09654 -61.18377,109.34981 -6.90014,26.5524 -8.03224,36.11446 -8.0477,67.97346 -0.0154,31.73757 0.70621,38.30425 7.02762,63.95029 7.23237,29.3418 21.3465,60.8395 39.23105,87.54971 13.17588,19.67791 20.85633,29.18547 36.63946,45.35564 29.40095,30.12195 57.36844,50.54131 95.03596,69.38678 15.82684,7.91833 39.66422,17.73489 52.90986,21.78899 6.48754,1.98565 7.47653,2.5422 5.5,3.0951 -2.4116,0.67462 -44.87049,0.8362 -52.40986,0.19946 z"
         id="path9"
         sodipodi:nodetypes="ssssssssscsssscsssssssssssssssss" />
    </g>
  </g>
</svg>
